<svg xmlns="http://www.w3.org/2000/svg" width="44" height="48" viewBox="0 0 44 48">
    <g fill="#FFC36C" fill-rule="evenodd">
        <path d="M20.83 36.061a13.496 13.496 0 0 1-11.05-7.95c-3.032-6.811.03-14.791 6.842-17.824 6.811-3.033 14.791.03 17.824 6.842 2.226 4.999 1.168 10.627-2.245 14.468l.82 4.673-8.394 3.847-3.798-4.056zM.948 30.401l4.568-2.034.813 1.828-4.567 2.033-.814-1.827zm36.542-16.27l4.568-2.033.813 1.827-4.568 2.034-.813-1.827zm-24.577 28.68l1.792-4.669 1.867.717-1.792 4.668-1.867-.717zM27.248 5.466L29.039.8l1.868.717-1.792 4.668-1.867-.717zm-25.985 7.7l4.667 1.791-.716 1.867-4.668-1.792.717-1.867zM38.606 27.5l4.668 1.792-.717 1.867-4.668-1.792.717-1.867zM11.845 2.015l1.827-.813 2.033 4.567-1.827.814-2.033-4.568z"/>
        <path stroke="#FFC36C" d="M26.187 41.604l7.308-3.254.407.914-7.308 3.254zM27.407 44.345l7.308-3.254.407.913-7.308 3.254z"/>
        <path stroke="#FFC36C" stroke-width="2" d="M28.1 44.584l6.33-2.818a3.5 3.5 0 0 1-6.33 2.818z"/>
    </g>
</svg>
