<svg xmlns="http://www.w3.org/2000/svg" xmlns:xlink="http://www.w3.org/1999/xlink" width="500" height="400" viewBox="0 0 500 400">
    <defs>
        <path id="a" d="M418.562 289.62c-91.38 43.56-137.098-2.606-244.768 66.235-54.77 35.018-125.557-34.114-122.71-146.196C53.663 107.999 77.375 46.564 174.63 40c97.255-6.564 236.751 60.46 274.609 126.695 0 0 60.702 79.364-30.678 122.924z"/>
        <path id="c" d="M0 0h120v120H0z"/>
        <path id="e" d="M0 0h120v120H0z"/>
        <path id="g" d="M0 0h120v120H0z"/>
        <path id="i" d="M0 0h120v120H0z"/>
    </defs>
    <g fill="none" fill-rule="evenodd">
        <mask id="b" fill="#fff">
            <use xlink:href="#a"/>
        </mask>
        <use fill="#D7FBD0" xlink:href="#a"/>
        <g mask="url(#b)">
            <g transform="translate(291 205)">
                <mask id="d" fill="#fff">
                    <use xlink:href="#c"/>
                </mask>
                <use fill="#FCF4FF" xlink:href="#c"/>
                <path fill="#4664FF" d="M51 16c-3.5.824-16.73 6.117-18 18.5-1.27 12.383 4.394 22.656-1.11 28.633-5.503 5.978-11.813 15.338-9.39 22.367C24.923 92.529 30.89 99 37.74 99c4.567 0 9.814-1.85 15.74-5.55L68 92.5c3.745 3.667 8.015 5.5 12.809 5.5C88 98 93.959 93.478 96.5 87.5c2.54-5.978 1.919-17.425-3.5-23-5.419-5.575-8.195-11.776-6.5-16.888C88.195 42.5 88.889 30.5 82.5 23c-6.389-7.5-19.25-10.781-23.5-9.5-2.833.854-4 2.02-3.5 3.5-.667-1.216-2.167-1.55-4.5-1z" mask="url(#d)"/>
                <path fill="#FFCBA5" d="M69.075 77.086c-.383 2.898-.575 5.203-.575 6.914 0 2.763 1.5 6.096 4.5 10-3.76 3.333-7.951 5-12.576 5-4.625 0-9.1-1.667-13.424-5 3.333-3.904 5-7.237 5-10 0-1.73-.13-4.07-.393-7.015-6.009-3.72-10.377-11.127-11.328-19.937C37.343 56.944 35 54.873 35 52.332c0-2.607 2.466-4.72 5.508-4.72.51 0 1.003.059 1.47.17 2.496-2.775 6.836-3.248 9.124-5.616C53.512 39.67 55.339 32 55.339 32c2.39 2.178 2.39 6.74 6.78 9.077 2.387 1.27 4.814 3.418 7.881 4.423 2.378.779 5.752 1.29 8.094 2.265a6.39 6.39 0 0 1 1.398-.153c3.042 0 5.508 2.113 5.508 4.72 0 2.288-1.9 4.196-4.422 4.628-.94 8.929-5.388 16.427-11.503 20.126z" mask="url(#d)"/>
                <ellipse cx="62" cy="112" fill="#FFCBA5" mask="url(#d)" rx="29" ry="22"/>
                <path fill="#FFE43A" d="M47.797 91.604C40.932 93.868 36.167 95.5 33.5 96.5c-4 1.5-10.25 7-13.25 13-2 4-2.667 9.833-2 17.5l56 11 31.5-16c-3.667-13-6.667-20.333-9-22-1.516-1.083-4.389-3.932-9-6-1.658-.743-6.241-1.542-13.75-2.396C71 95.868 66.833 98 61.5 98s-9.901-2.132-13.703-6.396z" mask="url(#d)"/>
            </g>
        </g>
        <g mask="url(#b)">
            <g transform="translate(171 205)">
                <mask id="f" fill="#fff">
                    <use xlink:href="#e"/>
                </mask>
                <use fill="#DBFDFF" xlink:href="#e"/>
                <path fill="#8660EC" d="M-27.717 37.225S-14 34.326-7.524 47.856c6.476 13.53 9.715 37.79 25.905 38.577 16.19.786 20.816-36.745 34.694-37.353 13.878-.61 16.706 26.856 25.468 26.278 8.764-.577 9.226-11.101 23.104-10.623 13.878.478 30.531 12.886 46.722-6.234 16.19-19.12 38.827 39.408 44.996 34.127 12.76-10.923 17.244 27.543 17.244 27.543l-237.802 1.577-.524-84.523z" mask="url(#f)"/>
                <path fill="#D965BA" d="M-27.193 121.748c.603-1.954 3.613-32.439 14.194-34.393 10.582-1.954 9.07 11.334 18.52 10.162 9.447-1.173 12.849-33.612 23.808-34.784 10.96-1.172 19 21.887 25.94 22.277 6.94.391 7.696-6.644 12.987-5.863 5.29.782 7.558 16.025 14.361 15.243 6.803-.782 10.204-40.256 27.967-42.991 17.762-2.736 19.274 25.013 34.769 25.404 15.495.39 15.873-16.415 26.833-8.342 5.724 4.217 7.186 38.32 20.695 37.67 6.618-.318 8.758-8.798 11.852-9.232 4.54-.637 5.876 23.272 5.876 23.272l-237.802 1.577z" mask="url(#f)"/>
            </g>
        </g>
        <g mask="url(#b)">
            <g transform="translate(69 217)">
                <path fill="#FFCBA5" d="M55.162 66.643c-.846 4.18-1.269 7.451-1.269 9.812 0 3.009 1.036 5.902 3.107 8.68C50.679 87.045 46.472 88 44.379 88s-6.22-.955-12.379-2.865c2.524-2.672 3.786-5.565 3.786-8.68 0-2.198-.455-5.08-1.365-8.644-5.99-3.308-9.192-10.202-10.09-19.557a6.183 6.183 0 0 1-.143.002C20.77 48.256 18 45.43 18 41.945c0-3.195 2.328-5.836 5.348-6.254-.764-4.507-1.652-8.778.04-12.187C27.06 16.104 37.603 12 44.2 12c5.988 0 16.447 1.995 20.136 8.256 2.28 3.872 1.27 9.645.53 15.469 2.915.51 5.133 3.101 5.133 6.22 0 3.409-2.65 6.187-5.963 6.307-.902 8.367-3.837 14.766-8.875 18.391z"/>
                <ellipse cx="45.957" cy="94.104" fill="#FFCBA5" rx="31.5" ry="16.5"/>
                <path fill="#060E4F" d="M60.186 80L45.25 88.5 30 80S16.14 82 8.07 90.5 0 109.748 0 109.748L38.621 122s38.045-7 39.774-7c1.153 0 5.354-1.75 12.605-5.252C89 98.249 84.667 90.333 78 86c-6.667-4.333-12.605-6.333-17.814-6z"/>
                <path fill="#4664FF" d="M55.58 17.763c-3.298.004-5.772.006-7.422.006-2.474 0-5.443 2.113-9.154 3.433-3.71 1.32-11.875 3.169-11.875 2.119 0-1.05-3.216 3.967-3.216 8.72 0 3.17-.135 6.49-.404 9.959-2.865-5.084-4.297-9.9-4.297-14.447 0-4.549.66-7.894 1.98-10.036-.66.529-.99-.704-.99-3.697 0-4.49 8.659-9.595 12.37-9.595 2.474 0 5.195-.352 8.164-1.056-.66-2.113-.33-3.169.99-3.169 1.979 0 5.195 2.377 7.422 4.225 1.484 1.233 3.628 2.318 6.432 3.257 3.73 1.64 6.203 3.312 7.422 5.018 5.26 7.359 4.101 14.22 4.101 16.549 0 3.873-.782 7.585-2.347 11.135-.18-7.188-.764-11.4-1.754-12.631-.64-.798-3.102-3.356-5.195-7.401-.76-1.468-1.502-2.265-2.227-2.39z"/>
                <path fill="#060E4F" d="M32 76.604L47.957 87 42.5 93.104 24.421 80.069z"/>
                <path fill="#060E4F" d="M58.957 76.604L43 87l5.457 6.104 18.08-13.035z"/>
            </g>
        </g>
        <g mask="url(#b)">
            <g transform="translate(171 85)">
                <path fill="#FFF" d="M0 0h120v120H0z"/>
                <path fill="#FA2828" fill-rule="nonzero" d="M64.311 26.066a4.5 4.5 0 0 0-7.622 0l-40.66 64.758a4.5 4.5 0 0 0 3.812 6.893h81.318a4.5 4.5 0 0 0 3.811-6.893L64.311 26.066z"/>
                <rect width="7" height="26" x="57" y="47" fill="#FFF" rx="3.5"/>
                <circle cx="60.5" cy="83.5" r="3.5" fill="#FFF"/>
            </g>
        </g>
        <g mask="url(#b)">
            <g transform="translate(51 85)">
                <mask id="h" fill="#fff">
                    <use xlink:href="#g"/>
                </mask>
                <use fill="#F2EEFC" xlink:href="#g"/>
                <g mask="url(#h)">
                    <path fill="#FFCBA5" d="M66.417 86.26C66.14 89.394 66 91.858 66 93.652c0 1.44 8.361 3.084 11 4.348 1.632.782 2.87 1.782 3.712 3-12.663 4-19.94 6-21.83 6-1.891 0-8.852-2.5-20.882-7.5 2.023-1.179 3.786-2.012 5.288-2.5C46.565 95.936 52 95.298 52 93.652c0-1.787-.196-4.238-.59-7.354-5.147-2.936-9.595-8.917-10.615-17.66C38.132 68.553 36 66.34 36 63.626c0-2.77 2.22-5.016 4.958-5.016a5 5 0 0 1 .072 0C42.88 46.237 50.17 37 58.88 37c8.723 0 16.021 9.26 17.86 21.658 2.407.343 4.259 2.436 4.259 4.967 0 2.447-1.732 4.485-4.023 4.927-.996 8.752-5.422 14.75-10.56 17.708z"/>
                    <path fill="#4664FF" d="M48.005 27.648C48.191 21.183 53.49 16 60 16c6.43 0 11.68 5.058 11.986 11.412.614.24 1.093.501 1.412.78C76.05 30.508 87.868 35.29 85.07 50.5c-.295 1.604-1.66 5.104-4.094 10.5l-4.925-3.088-4.965-8.877c-3.174 3.45-6.065 5.509-8.673 6.175-2.608.667-5.72 1-9.334 1l2.515-9.491c-5.556 7.462-9.344 11.193-11.365 11.193-3.03 0-6.44 3.088-6.44 3.088S34 53.667 34 49.035s1.136-17.369 12.123-20.843c.62-.196 1.248-.377 1.882-.544z"/>
                    <path fill="#2FD1C5" d="M46.5 96c5.498 3 9.914 4.5 13.247 4.5C64.747 100.5 71 96 72 96s17 4.5 22.5 13.5c3.667 6 5.333 10.333 5 13l-33.5 16-33-5.5s-7.481-.223-13.5-9c-.92-1.342-1.153-10.1 5.5-17 4.435-4.6 11.602-8.266 21.5-11z"/>
                </g>
            </g>
        </g>
        <path fill="#FA2728" d="M233.816 94.81c-.06 3.496-5.696 3.674-5.952-.036l.04-16.156c-.256-3.71 5.696-3.674 5.636-.178l.276 16.37zm24.858-3.975l-13.03 13.34c-2.667 2.626-6.362-1.194-4.207-3.724l13.234-13.644c2.668-2.626 6.67 1.401 4.003 4.028zm11.419 26.671l-18.888 1.01c-3.81-.278-3.701-5.704.015-5.948l18.981-.489c3.717-.243 3.701 5.705-.108 5.427zM206.79 88.053l13.27 13.133c2.827 2.37-1.316 6.545-3.623 4.06l-13.79-13.018c-2.61-2.69 1.532-6.865 4.143-4.175zm-14.398 25.076l19.15-.833c3.496.066 3.684 5.693-.025 5.942l-18.937.518c-3.708.249-3.684-5.693-.188-5.627z"/>
        <g transform="translate(291 85)">
            <mask id="j" fill="#fff">
                <use xlink:href="#i"/>
            </mask>
            <use fill="#FFF3E5" xlink:href="#i"/>
            <g mask="url(#j)">
                <path fill="#FFCBA5" d="M71.913 79.29C70.97 81.932 70.5 84.17 70.5 86c0 2.209 1.13 4.514 3.39 6.917C87.367 95.073 97 100.788 97 107.5c0 8.56-15.67 15.5-35 15.5s-35-6.94-35-15.5c0-6.592 9.291-12.222 22.39-14.464C52.13 90.695 53.5 88.35 53.5 86c0-1.769-.489-3.979-1.466-6.63-5.36-3.692-8.397-10.625-9.532-19.056l-.104.001c-2.981 0-5.398-2.435-5.398-5.44 0-2.868 2.202-5.218 4.996-5.425C42.16 34.065 44.153 22 61.916 22c17.811 0 19.766 12.132 19.92 27.578A5.434 5.434 0 0 1 86 54.875c0 2.754-2.03 5.03-4.665 5.39-1.121 8.392-4.124 15.305-9.422 19.024z"/>
                <path fill="#4664FF" d="M51.545 22.244c4.7 1.242 7.785 1.143 9.253-.296C63.002 19.79 67.5 19.79 70.5 19c3-.789 8.685 1 11.347 5.5 2.663 4.5 1.53 8.911-1.038 12.612-2.569 3.702 1.53.758-4.638.758-1.726 0-8.374 2.456-11.077 2.338-2.02-.088-8.857.303-10.573 0-1.283-.227 3.488-2.118 2.413-2.338-2.436-.498-4.295-.109-5.389.35-3.084 1.296-7.49 3.861-7.49 6.884v4.935c-.353 2.728-.704 4.091-1.055 4.091l-1.017-4.091c.42 4.091-1.02-.404-1.475-2.604-1.09-5.267-3.734-13.847-.42-17.85 3.134-3.784 6.952-6.231 11.457-7.341z"/>
                <path fill="#4664FF" d="M76.532 31c4.157 0 7.067 1.66 7.067 3.32 0 .791.764 4.372.901 7.68.15 3.642-1.484 6.71-2 7.5-.435.667-1.068 2.21-1.898 4.63-1.05-13.206-2.407-19.81-4.07-19.81-2.494 0-4.157-3.32 0-3.32z"/>
                <path fill="#FF525E" d="M47.5 93c-5.61 1.333-10.277 2.667-14 4-5.585 2-14 10.5-17 16.5-2 4-1.75 9.167.75 15.5l56 11L108 124c.213-8.942-2.287-15.609-7.5-20-3.562-3-9.139-5.932-13.75-8-1.658-.743-4.991-1.743-10-3-4.833 4-9.917 6-15.25 6s-10-2-14-6z"/>
            </g>
        </g>
    </g>
</svg>
