<svg xmlns="http://www.w3.org/2000/svg" xmlns:xlink="http://www.w3.org/1999/xlink" width="600" height="500" viewBox="0 0 600 500">
    <defs>
        <path id="a" d="M47 191c22.076-.27 37.265-1.27 45.566-3 8.301-1.73 19.057-4.012 32.266-6.845 4.761 9.897 9.817 41.512 15.168 94.845 5.351 53.333 6.197 97.924 2.538 133.771h-12.564c-7.976-22.615-13.3-39.706-15.974-51.271-4.887-21.14-7.58-54.818-11-72.5-2.455-12.696-5.927-20.703-9.306-29.614-.267-.702-.643-1.83-1.128-3.386.33 4.327.33 8.327 0 12-.46 5.14-4.566 47.884-4.566 53 0 9-3.265 40.924-9.796 95.771l-16.204 1c-3.006-19.773-5.006-34.03-6-42.771-2.636-23.193-1.716-41.724-3-54-1.75-16.722-11.697-58.5-11.697-87 0-37.519 1.899-50.852 5.697-40z"/>
        <linearGradient id="d" x1="16.432%" x2="80.329%" y1="83.408%" y2="10.538%">
            <stop offset="0%" stop-color="#7E5CF1"/>
            <stop offset="100%" stop-color="#FF54C8"/>
        </linearGradient>
        <linearGradient id="e" x1="13.38%" x2="86.574%" y1="14.713%" y2="82.894%">
            <stop offset="0%" stop-color="#FF4F8E"/>
            <stop offset="100%" stop-color="#FF1414"/>
        </linearGradient>
        <path id="c" d="M122.786 263c55.464 0 81.238-16.144 102.915-32.75 31.229-23.924 44.296-48.133 44.296-90.855 0-29.691-1.212-59.206-20.497-87.6C240.76 38.928 231.789 32.627 212 20 179.982-.43 160.345 1 125.506 1 78.79 1 39.484 20.862 16 60.284 3.57 81.147 0 102.808 0 127.856c0 38.65 2.057 67.646 27.791 91.632C50.247 240.418 89.495 263 122.786 263z"/>
        <path id="f" d="M0 6l32.5 15.5.5 7.5H1z"/>
    </defs>
    <g fill="none" fill-rule="evenodd">
        <g fill="#F3F3F3">
            <path d="M107 471c-18.694 10.47 25.717 13.06 30.843 13.06 5.126 0 51.523-2.92 66.022-2.49 3.17.094 17.16-2.463 24.458-3.04 6.96-.55 10.02-2.59 9.177-6.123 1.546-3.763-8.142-6.545-29.066-8.347-31.385-2.702-31.183.698-56.092 0-24.908-.698-26.648-3.53-45.342 6.94zM387.53 476.318c-24.096 0-30.006-2.347-31.47 5.704-1.465 8.05 24.445 5.89 29.45 5.89 5.005 0 16.02.161 25.52-2.5 9.5-2.663.596-9.094-23.5-9.094z"/>
        </g>
        <g transform="translate(59 41)">
            <path fill="#FFC093" d="M216 143.5c2-1.168 5.543-1.5 9.772-2.5 2.819-.667 4.895-.667 6.228 0 1.667 1 1.167 1.833-1.5 2.5s-4.24 1.167-4.719 1.5c2.146-.667 4.552-.667 7.219 0 2.667.667 4 1.69 4 3.07.333 3.646-.5 5.797-2.5 6.453-3 .986-2.5 1-7.5.477-3.336-.35-7.336-2.477-11-3.462-1.632-.438-.5 1.728-.5-.376 0-5.467-1.5-6.494.5-7.662z"/>
            <path fill="#FFE43A" d="M90.5 65.5c5.839 0 8.661.444 16.5 3.5s14 8.5 19.5 15.5c3.667 4.667 7.13 19.574 10.392 44.723 11.983-.05 20.519.21 25.608.777 32.786 3.655 51.054 8.942 55.629 12.252 2.044 1.479.13 7.062 0 8.748-.435 5.653-28.502 14.761-42.129 16-33 3-50.743-5.793-50.743-2 0 2.6-.1 3.955 0 6 .205 4.233.205 8.066 0 11.5-10.171 2.333-22.552 4.5-37.141 6.5-14.59 2-31.628 3.333-51.116 4 .127-1.904.127-5.404 0-10.5-1.365-54.604 3.339-78.944 3.339-78.944s-3.5-27 12-33S84.66 65.5 90.5 65.5z"/>
            <path fill="#FFC093" d="M71.387 73.778c-3.244-.28-4.318-.628-7.373-3.426-2.206-2.02 0-6.352-3.248-12.61C55.139 46.9 47.617 38.824 48.342 30.644c1.441-16.285 16.918-24.25 28.14-23.28 9.013.779 19.512 12.804 16.804 25.602-.639 3.022 2.869 10.11 2.777 11.145-.188 2.131-3.138 1.644-4.013 4.823-.925 3.359.675 4.23-2.159 6.59-2.383 1.986-4.253 3.197-8.473 2.832C80.298 58.26 79.09 61.539 79 64c-.074 1.992.906 2.934.71 5.155-.275 3.104-6.361 4.792-8.323 4.623z"/>
            <path fill="#FFE43A" d="M61 91.414C61.667 74.11 56.833 68.305 46.5 74 31 82.542 22 94.488 19.5 108.203 17.833 117.347 16.667 132.28 16 153l55-10.202-10-51.384z"/>
            <path fill="#4664FF" d="M47.591 28c-1.645-4-.978-8.667 2-14C54.06 6 64.25 4 72.625 4 81 4 93.409 6 96.175 5c2.767-1 2.767 5.5 0 11C93.41 21.5 84.5 27.378 75.5 29c-9 1.622-15.286.75-15.286.75s2.767 5.5 2.767 8.25v8c0 2.147.1 8.968-1.767 9.419-1.116.27-2.738-1.18-4.714-2.347C56.09 52.83 45 38 45 33.875c0-2.75.864-4.708 2.591-5.875z"/>
            <path fill="#FFC093" d="M59.442 49.463c2.93.785 6.058 1.193 6.058-2.463s.466-2.994-3.758-6.123c-4.224-3.128-6.367.246-6.457 2.871-.089 2.626 1.226 4.93 4.157 5.715z"/>
            <path fill="#FFE43A" d="M122 80.5c3 2.333 5.333 5.333 7 9 1.667 3.667 4.167 11.667 7.5 24-6.667 2.333-10 3-10 2 0-.612-.876-17.398-2-26-.475-3.636-1.308-6.636-2.5-9z"/>
            <mask id="b" fill="#fff">
                <use xlink:href="#a"/>
            </mask>
            <use fill="#4A2F72" xlink:href="#a"/>
            <path stroke="#979797" d="M100 186.5c0 11.667-1.333 19-4 22s-3.833 5.167-3.5 6.5c.441 11.859.685 20.154.73 24.885.095 9.846-.149 8.335-.73 13.566" mask="url(#b)"/>
            <g fill="#213A49">
                <path d="M146.03 413.743c1.337 3.433 3.468 6.3 6.393 8.605 4.387 3.456 8.988 5.565 7.186 8.04-1.802 2.476-9.474 1.951-17.039.753-7.565-1.198-14.06-.247-13.909-5.654.101-3.605.563-6.523 1.386-8.754l4.127.654c3.439.544 4.553-2.04 4.34-.693-.214 1.346 1.434-4.605 3.497-4.278 1.376.218 2.715.66 4.02 1.327zM79.667 416.682c1.857 3.181 4.41 5.681 7.66 7.499 4.873 2.727 9.748 4.09 8.355 6.818-1.393 2.727-9.052 3.408-16.711 3.408-7.66 0-15.927-.045-16.623-5.408-.464-3.576-.464-6.53 0-8.863H73c.696 0 .4-4.136 2.489-4.136 1.393 0 2.785.227 4.178.682z"/>
            </g>
            <path stroke="#EFD21C" d="M124.74 154c0-4 1.5 19.087 0 27"/>
        </g>
        <g transform="translate(167 20)">
            <use fill="#50CCBC" xlink:href="#c"/>
            <use fill="url(#d)" xlink:href="#c"/>
            <use fill="url(#e)" xlink:href="#c"/>
        </g>
        <g fill="#FFF">
            <path d="M294.557 143.154c-.998 0-1.372.163-1.998.78-.655.647-2.013 2.19-2.32 2.683-.147.236-.085.453.039.682.731 1.368 2.06 1.778 3.943 1.778h14.376c.998 0 1.374-.162 1.998-.78.655-.646 2.012-2.187 2.32-2.682.146-.235.084-.455-.038-.684-.73-1.367-2.062-1.777-3.946-1.777h-14.374zM331.227 141.014c-.89-.449-1.292-.486-2.105-.273-.852.225-2.7.85-3.179 1.107-.228.123-.263.325-.247.564.086 1.424 1.104 2.349 2.784 3.195l12.83 6.456c.891.448 1.293.487 2.105.272.852-.223 2.7-.848 3.18-1.105.227-.124.263-.327.248-.566-.087-1.422-1.105-2.35-2.787-3.195l-12.829-6.455zM320.783 133.116c-.196-.116-.382-.173-.584-.036-.423.288-1.745 1.56-2.3 2.174-.529.586-.668.937-.668 1.872v18.291c0 1.766.351 3.014 1.523 3.698.196.115.384.173.586.036.424-.288 1.745-1.561 2.299-2.174.53-.585.669-.937.669-1.873v-18.292c0-1.765-.352-3.01-1.525-3.696M354.63 133.116c-.197-.116-.383-.173-.584-.036-.424.288-1.746 1.56-2.3 2.174-.53.586-.67.937-.67 1.872v18.291c0 1.766.353 3.014 1.524 3.698.196.115.385.173.587.036.423-.288 1.744-1.561 2.298-2.174.53-.585.669-.937.669-1.873v-18.292c0-1.765-.351-3.01-1.524-3.696M262.689 141.014c-.89-.449-1.292-.486-2.106-.273-.852.225-2.7.85-3.178 1.107-.229.123-.263.325-.248.564.087 1.424 1.105 2.349 2.785 3.195l12.83 6.456c.891.448 1.293.487 2.105.272.852-.223 2.7-.848 3.18-1.105.227-.124.263-.327.248-.566-.087-1.422-1.106-2.35-2.788-3.195l-12.828-6.455zM251.4 133.116c-.198-.116-.384-.173-.585-.036-.424.288-1.745 1.56-2.3 2.174-.53.586-.669.937-.669 1.872v18.291c0 1.766.352 3.014 1.523 3.698.196.115.385.173.587.036.424-.288 1.745-1.561 2.299-2.174.53-.585.668-.937.668-1.873v-18.292c0-1.765-.351-3.01-1.524-3.696M285.245 133.116c-.196-.116-.383-.173-.584-.036-.424.288-1.745 1.56-2.3 2.174-.53.586-.669.937-.669 1.872v18.291c0 1.766.352 3.014 1.523 3.698.197.115.385.173.587.036.424-.288 1.745-1.561 2.299-2.174.53-.585.668-.937.668-1.873v-18.292c0-1.765-.35-3.01-1.524-3.696"/>
            <g>
                <path d="M280.889 174.606c0 1.651-1.102 2.394-3.075 2.394-1.307 0-2.858-.138-2.858-.138V175.5s1.538.165 2.667.165c1.279 0 1.878-.371 1.878-1.224v-.385c0-.62-.136-1.019-1.089-1.129l-1.496-.179c-1.198-.138-2.001-1.045-2.001-2.27v-.743c0-1.596 1.13-2.34 3.02-2.34.886 0 1.974.097 2.505.152v1.334s-1.565-.178-2.34-.178c-1.266 0-1.797.33-1.797 1.21v.372c0 .55.177 1.018 1.062 1.129l1.565.192c1.156.137 1.959.936 1.959 2.16v.84zM283.571 176.849v-9.302h5.498v1.252h-4.11v2.793h3.47v1.238h-3.47v2.752h4.218v1.267zM296.296 169.941c0-.77-.327-1.142-1.184-1.142h-2.136v2.89h2.136c.857 0 1.184-.372 1.184-1.143v-.605zm.653 6.908l-1.96-3.908h-2.013v3.908h-1.388v-9.302h4.136c1.13 0 1.96.922 1.96 2.064v1.266c0 .894-.504 1.65-1.265 1.94l2.04 4.032h-1.51zM306.122 167.547h1.51l-3.183 9.302h-1.66l-3.185-9.302h1.512l2.435 7.623h.136zM310.084 176.849h1.388v-9.302h-1.388zM320.427 176.849c-.668.055-1.606.151-2.34.151-1.783 0-3.458-.537-3.458-2.904V170.3c0-2.367 1.702-2.903 3.485-2.903.734 0 1.62.096 2.285.151v1.32s-1.306-.164-2.218-.164c-1.687 0-2.162.495-2.162 2.064v2.697c0 1.568.475 2.229 2.162 2.229.912 0 2.246-.165 2.246-.165v1.32zM322.918 176.849v-9.302h5.498v1.252h-4.109v2.793h3.47v1.238h-3.47v2.752h4.218v1.267z"/>
            </g>
        </g>
        <g transform="translate(70 109)">
            <path fill="#494949" d="M122 46.5l-7.57.998a4 4 0 0 0-3.476 3.912l-.388 29.172a4 4 0 0 0 4.792 3.974l9.48-1.917a4 4 0 0 0 3.206-3.865l.392-28.52a4 4 0 0 0-4.552-4.017L122 46.5z"/>
            <path fill="#FFC093" d="M48.41 74.48l-5.472 1.335-17.849 3.112c-.69 17.488 2.627 26.232 9.951 26.232 7.325 0 26.758-5.78 58.3-17.34 12.44-5.994 20.156-8.958 23.145-8.892 4.485.098 9.017-3.014 10.853-4.446.39-.305 1.991-2.553.807-2.601-1.746-.071-5.83 2.018-5.83 2.018.424.007 6.413-2.905 6.279-3.112-.317-.49.579-1.454 0-1.779-.819-.458-7.469 2.4-7.624 1.779-.073-.293 8.127-2.83 8.072-3.112-.182-.938-.215-2.027 0-2.668.301-.896-10.4 4.08-10.314 3.112.058-.649 2.289-1.22 4.933-2.223 3.437-1.304 6.902-3.63 5.381-5.78-.595-.842-.245.232-1.704.583-1.1.264-3.17 1.928-5.023 2.53-5.1 1.655-10.815 2.756-10.815 1.778 0-.665.468-3.152.5-4.89.034-1.748-.763-3.19-.896-3.113-1.787 1.034-1.885 3.16-2.104 3.997-.44 1.683-.587 4.45-1.484 7.118-.23.688-1.765 2.006-2.242 2.668-1.77 2.456-4.305 3.277-12.916 5.029-7.287 1.482-21.572 4.001-42.855 7.558L48.41 74.48z"/>
            <path fill="#FFE43A" d="M50 .5c-2 0-17.5 6-24 12.5S9 27 5.5 52s-7 52.5-3.5 60 9.23 13 20 13c8.5 0 25.624-1.237 41-12 10-7 25.167-16.667 45.5-29L103 69c-33.333 8-53 5.333-59-8C35 41 52 .5 50 .5z"/>
            <path stroke="#EFD21C" stroke-linecap="round" d="M98 70c-9.667-1.333-22.167-.333-37.5 3-15.333 3.333-26.167 6.667-32.5 10"/>
            <path stroke="#EFD21C" d="M39 59s1 10-2 20"/>
            <path fill="#EFD21C" d="M78.5 105c3.776-2.5-15 10-33 16-5.703 1.901-8.094 2.225-6.348 2.5 3.766.593 20.526-1.134 20.848-2.5.472-2 14.724-13.5 18.5-16z"/>
            <ellipse cx="115.5" cy="51" fill="#D8D8D8" rx="2.5" ry="1" transform="rotate(-14 115.5 51)"/>
        </g>
        <g>
            <path fill="#191461" d="M388.38 354.69c.732 15.343 1.105 27.946 1.12 37.81.015 9.864-.318 28.324-1 55.381-2.651.963-4.818 1.503-6.5 1.619-1.682.116-4.349-.09-8-.619-10.703-63.317-16.037-100.984-16-113 .01-3.584 2.85-12.3 5.5-15l29-26.881c4.255-4.812 18.386-17.064 24.5-19 16.472-5.216 40.434 6.936 21 29.881-17.764 20.975-34.305 37.578-49.62 49.81z"/>
            <path fill="#5E3DEF" d="M398.97 457.205c.957-.152 2.232.153 3.824.914 2.389 1.142 1.423 4.335 3.093 5.59 1.671 1.255 3.355-2.051 5.509-2.392 1.436-.228 2.284 1.546 2.544 5.32-3.707 2.345-7.396 4.314-11.068 5.91-5.509 2.392-16.027 4.914-18.899 5.37-2.872.454-2.13-2.638-1.438-3.67.694-1.032 3.123-2.273 7.075-6.44s4.204-5.985 5.287-8.437c.723-1.634 2.08-2.356 4.073-2.165zM376.289 451.177c-1.88-.473-3.29 0-4.23 1.42-1.41 2.128-1.927 3.79-6.346 7.095-4.418 3.306-6.934 4.106-7.755 4.967-.82.862-2 3.639.82 3.639 2.821 0 13.28-.8 18.92-2.22 3.76-.946 7.594-2.239 11.501-3.88.324-3.562-.22-5.344-1.63-5.344-2.115 0-4.23 2.838-5.64 1.42-1.41-1.42 0-4.258-2.115-5.677-1.41-.947-2.585-1.42-3.525-1.42z"/>
            <path fill="#191461" d="M420.5 362.882c0 10.449-7.5 84.109-7.5 87.5 0 3.39-10.706 5.618-14.5 3-.505-6.93-10.553-84.046-10.5-102 .012-3.569 3.85-8.312 6.5-11l34.5-52.624c-3.63-1.854 4.733-8.508 14.773-8.758 12.078-.3 26.726 6.704 27.727 16.438.411 4.003 4.3 20.187-7.5 33.443-11.8 13.257-43.5 23.553-43.5 34.001z"/>
            <path fill="#FFC093" d="M363.5 239.5l-12.472-3.755s-7.4-5.977-8.528-6.774c-1.127-.797-5.373-4.166-6.5-2.971-1.127 1.195-.252.978.5 1.775.752.797 4.503 3.225 3 3.225-1.503 0-10.642-2.826-11.77-4.022-1.127-1.195-1.878 0-1.503.797.25.531 3.175 2.146 8.773 4.845-5.347-2.167-8.272-3.384-8.773-3.65-.751-.398-1.503.798-1.127 1.196.25.266 3.55 1.877 9.9 4.834l-8.773-2.842c-.752-.051-1.127.011-1.127.189 0 .265.877 1.14 1.127 1.405.501.531 3.092 1.86 7.773 3.985l-7.238-2.32c-.184.37-.184.678 0 .921.183.244 1.007.71 2.471 1.399 4.544 1.395 7.3 2.316 8.267 2.763.269.124 6.997 2 8.5 2 1.503 0 8.742 4.805 12.5 6 1.757.559 17.72 8.188 26 11.5 5 2 9.667 1.833 14-.5 12.641-9.489 19.141-15.989 19.5-19.5.973-9.523-16-14.996-16.5-16-1.14-2.287-10.974 22.026-11.5 21.5-1.5-1.5-26.5-6-26.5-6z"/>
            <path fill="#A998FF" d="M411 192.073c-4 4.003-10.791 16.637-13.5 33.926 9.91 5.195 16.5 8.001 18.494 0 1.994-8 13.371-27.161 7.529-33.926-3.46-4.003-8.523-4.003-12.523 0z"/>
            <path fill="#A998FF" d="M420 187c14.95-2.825 15.067-3.513 23-2.5 2.046.261 19.624 1.728 29.5 7.614 12.02 7.165 15.49 20.987 15.49 41.736L476 285.438c0-1-26.5-.68-45-5.68-11.858-3.205-16-6.758-16.06-12.758-.06-6 .06-15-1.44-25-1.207-8.05-9-14.758-9-23s.074-29.085 15.5-32z"/>
            <path fill="#FFC093" d="M410.446 168.482c-2.254 3.608 5.054 1.018 6.983 4.655 1.251 2.359 1.251 5.363 5.071 5.363 4.202 0 7.862-4.07 11 .69 1.236 1.874-.188 8.177 1.5 9.31.847.568 3.31 3.5 7.5 3.5 2.274 0 6.19-1.854 8.051-5.5.243-.475.48-.617.449-1-.154-1.88-2.568-4.243-.449-13.76 1.816-8.15 6.449-11.31 6.449-19.086 0-16.455-10.422-29.795-23.277-29.795S407.5 138 408.5 145.5c1 7.5 2.688 9.943 3 11.932.945 6.025.113 9.183-1.054 11.05z"/>
            <path stroke="#979797" stroke-linecap="round" d="M424 280s-3 3.14-3 6.57c0 2.287-3.167 5.93-9.5 10.93" opacity=".5"/>
            <path fill="#ADBEC6" d="M346 302.873L406.679 336c21.214-11.667 32.654-18.333 34.321-20 1.667-1.667 1.667-3.08 0-4.238L380 283l-34 19.873z"/>
            <path fill="#D0D6DA" d="M344.5 304.5c.364.433.745.685 1.144.756L406 336l-7.014-48.627c.126-.873-.036-1.664-.486-2.373-.675-1.064-2.387-2.157-2.387-2.157C384.381 277.148 375.01 272.534 368 269c-7.105-3.582-17.388-8.876-30.849-15.88-.708-.369-.836-.202-1.151 0-.21.135-.421.516-.633 1.145l8.39 48.745c.132.56.38 1.057.743 1.49z"/>
            <path fill="#FFC093" d="M416.798 303.314c-.808.064-1.767.277-2.858.686-4 1.5-5.44 0-2.44-1.25 1.165-.485 3.318-1.152 5.5-1.75 1.038-.285 3.024-.616 5.958-.995.757-.149 1.482-.31 2.042-.505 5.428-1.895 12.358-6.605 21-12.5 5.967-4.07 14-10.5 18.598-13 .104-.057-.946-10.004-1-11-.878-16-.878-17.737 0-32.958 2.932-17.737 22.56-24.91 23.185-9.905 0 0 4.949 47.148-5.5 61.863-9.043 12.736-31.897 19.24-50.783 24.5-.669.186-3.919 2.507-5 3-3.663 1.669-8.184 3.614-10.5 4-2-1 6.53-4.188 5.123-4.5-1.017-.225-8.623 5.224-9.623 4.224s8.25-4.783 7.54-5.224c-.711-.442-9.593 6-10.54 4.5-.947-1.5 9.03-5.305 8.95-6-.09-.76-8.397 4.5-8.95 4-1.4-1.266 3.764-3.236 7.5-5.5.573-.347 1.193-.999 1.798-1.686z"/>
            <path stroke="#FFB884" stroke-linecap="round" d="M464.5 274c1.375-1.333 2.75-2 4.125-2"/>
            <path fill="#A998FF" d="M489 228c0 10.497.5 19.5.314 19.162h-27C462.5 239.5 460.5 232.597 458 222.5c-2.191-8.85.5-33.5 13.5-30S489 207.763 489 228z"/>
            <path fill="#FF525E" d="M411 143c2.5-5.5 5.5 0 10.5 5s22.5 15.5 22.5 7.5c3 6.5 11.95 14 20.5 14 6.639 0 17-4 29-18.5 7.053-8.522 33-11.202 33-24 0-28.803 27.492-10.151 23-23.5-1.518-4.51-9.304-8.21-23-7.615-6.368.276-17.132 4.865-23.5 4.615-16.195-.636-19-7-34-7-8.104 0-30 10-38 24-5.527 9.673-20.829 7.318-23.5 21-.544 2.788 0 9.5 1.5 12.5.5-2.5-.5-2.5 2-8z"/>
            <path fill="#FFCBA5" d="M446 166c2.21 0 5-4.239 5-7s-2.79-3-5-3-4 2.239-4 5 1.79 5 4 5z"/>
            <path fill="#FF5C68" d="M438.5 156h-3c3 1.667 4.5 3.167 4.5 4.5 0 1.333.667 2.5 2 3.5 1.667-4 2-6.667 1-8-1-1.333-2.833-2.5-5.5-3.5"/>
            <g transform="matrix(-1 0 0 1 452 159)">
                <circle cx="6" cy="6" r="6" fill="#2520A0"/>
                <mask id="g" fill="#fff">
                    <use xlink:href="#f"/>
                </mask>
                <path fill="#2520A0" fill-rule="nonzero" d="M15-3a7 7 0 0 0-7 7v6.5C8 16.851 13.149 22 19.5 22H24a7 7 0 0 0 7-7V4a7 7 0 0 0-7-7m-8-4h7c5.523 0 10 4.477 10 10v11c0 5.523-4.477 10-10 10h-2.5C12.492 24 4 17.508 4 9.5L6 3" mask="url(#g)"/>
                <rect width="6" height="6" x="27" y="17" fill="#2520A0" rx="3"/>
            </g>
            <path stroke="#8D79F1" stroke-linecap="round" d="M461.953 229c-.828 2.333-1.242 5-1.242 8s.334 6.333 1 10l.242-18z"/>
            <path fill="#927FF3" d="M411.5 218.75V231c0 3.913 1 2.662 1 5.5 0 1.892-1 .059-3-5.5l2-12.25z"/>
            <path stroke="#FFB884" d="M391 245c-.667 2-.667 3.667 0 5"/>
        </g>
    </g>
</svg>
