<svg xmlns="http://www.w3.org/2000/svg" xmlns:xlink="http://www.w3.org/1999/xlink" width="500" height="400" viewBox="0 0 500 400">
    <defs>
        <path id="a" d="M46.485 198c-7.962 123.693 66.385 170.373 136.179 160.895 69.794-9.479 66.047-22.748 120.85-27.487 54.805-4.74 148.957-18.483 155.046-97.153 6.09-78.67-36.068-105.684-79.63-121.797-43.563-16.114-118.978-76.775-201.419-57.344 0 0-123.063 19.194-131.026 142.886z"/>
        <path id="c" d="M10.263 7.897C-2.339 19.206-3.495 38.493 7.681 50.977c11.177 12.484 30.454 13.436 43.056 2.126 12.602-11.309 13.758-30.596 2.582-43.08C42.143-2.461 22.866-3.413 10.263 7.897"/>
        <path id="e" d="M.588 146.683c-7.963 123.693 66.385 170.374 136.178 160.895 69.794-9.478 66.047-22.748 120.851-27.487 54.805-4.74 148.956-18.483 155.046-97.153 6.09-78.67-36.068-105.684-79.63-121.797-43.563-16.113-118.978-76.775-201.42-57.344 0 0-123.062 19.194-131.025 142.886z"/>
        <path id="g" d="M42.5 0H82l1 79H0z"/>
    </defs>
    <g fill="none" fill-rule="evenodd">
        <mask id="b" fill="#fff">
            <use xlink:href="#a"/>
        </mask>
        <use fill="#FFF8D4" xlink:href="#a"/>
        <path fill="#2FD190" d="M110.294 237.459s-22.448 28.231-50.228 55.743-42.29 38.527-42.29 38.527L6.998 268.09s35.222-27.888 57.57-39.284c9.629-4.91 26.71-15.347 26.71-15.347l19.015 24z" mask="url(#b)" transform="rotate(-4 58.646 272.594)"/>
        <g transform="translate(187 60)">
            <path fill="#FFF" d="M0 208h167V12H0z"/>
            <path fill="#2B2B56" d="M167 17H0V3.005C0 1.352 1.362 0 3.027 0h160.946C165.638 0 167 1.352 167 3.005V17z"/>
            <circle cx="84" cy="95" r="61" fill="#A998FF"/>
            <path fill="#FFF" d="M119.5 23H156l1 70H84z"/>
        </g>
        <path fill="#D8D8D8" d="M217 239v-9h51v9h-51zm55 0v-9h51v9h-51zm-55 13v-9h51v9h-51zm55 0v-9h51v9h-51z"/>
        <path fill="#FFBF90" d="M379 247c-1 0-9.372 1.438-10.48 2.5C367.413 250.563 354 265 354 267s.5 5 2.5 3.5 12.02-7 12.02-8 10.48-7 10.48-6c0 .667-4.833 5.333-14.5 14-3.176 4.667-5.176 7.667-6 9-1.237 2-1 4 1.5 4 1.667 0 5.5-3.167 11.5-9.5-6.609 6.333-8.942 9.5-7 9.5 2.913 0 7-1.5 7-1.5l7.5-8s11.5-4 12.5-5.5c.667-1-2.167-8.167-8.5-21.5h-4z"/>
        <path fill="#4D67FF" d="M348.391 236.444c-17.104 13.03-41.494 11.053-55.94-5.081-15.207-16.987-13.634-43.23 3.514-58.618 17.147-15.389 43.376-14.093 58.584 2.892 13.833 15.452 13.781 38.565.751 54.198l30.236 33.5a2.529 2.529 0 0 1-.195 3.56l-3.36 3.012a2.53 2.53 0 0 1-3.563-.195l-30.027-33.268zm-4.654-10.34c12.602-11.31 13.758-30.598 2.582-43.081-11.177-12.484-30.453-13.436-43.056-2.127-12.602 11.31-13.758 30.597-2.582 43.081 11.177 12.484 30.453 13.436 43.056 2.127z"/>
        <g transform="translate(293 173)">
            <mask id="d" fill="#fff">
                <use xlink:href="#c"/>
            </mask>
            <circle cx="-20" cy="-11" r="68" fill="#A998FF" mask="url(#d)"/>
        </g>
        <path fill="#DBDADA" d="M196.931 297H144.07c-5.008 0-9.069-4.071-9.069-9.093v-97.814c0-5.022 4.06-9.093 9.069-9.093h52.862c5.009 0 9.069 4.071 9.069 9.093v97.814c0 5.022-4.06 9.093-9.069 9.093"/>
        <path fill="#FFF" d="M141 276h59v-82h-59z"/>
        <path fill="#4D67FF" d="M189.703 215h-38.406c-.716 0-1.297-.599-1.297-1.338v-10.324c0-.74.581-1.338 1.297-1.338h38.406c.716 0 1.297.599 1.297 1.338v10.324c0 .74-.581 1.338-1.297 1.338"/>
        <path fill="#009BFF" d="M189.788 227h-13.576c-.67 0-1.212-.586-1.212-1.31v-5.38c0-.723.542-1.31 1.212-1.31h13.576c.67 0 1.212.587 1.212 1.31v5.38c0 .724-.543 1.31-1.212 1.31"/>
        <path fill="#A998FF" d="M189.788 238h-13.576c-.67 0-1.212-.586-1.212-1.31v-5.38c0-.723.542-1.31 1.212-1.31h13.576c.67 0 1.212.587 1.212 1.31v5.38c0 .724-.543 1.31-1.212 1.31"/>
        <path fill="#4D67FF" d="M189.788 269h-13.576c-.67 0-1.212-.563-1.212-1.258v-25.485c0-.694.542-1.257 1.212-1.257h13.576c.67 0 1.212.563 1.212 1.257v25.485c0 .695-.543 1.258-1.212 1.258"/>
        <path fill="#00C4EC" d="M151.33 269a1.32 1.32 0 0 1-1.33-1.311v-47.378a1.32 1.32 0 0 1 1.33-1.311h17.34c.734 0 1.33.587 1.33 1.311v47.378c0 .724-.596 1.311-1.33 1.311h-17.34z"/>
        <path fill="#FFF" d="M159 283h22v6h-22z"/>
        <g>
            <path fill="#FF4A62" d="M160.719 196.314c-5.154 11.533-18.687 16.707-30.225 11.555-11.539-5.151-16.714-18.678-11.56-30.211 5.154-11.534 18.686-16.707 30.225-11.555 11.538 5.152 16.714 18.678 11.56 30.211"/>
            <path fill="#FFF" d="M137.879 192.364l13.313-13.314 2.829 2.829-13.314 13.313-2.828 2.829-11.9-11.9 2.829-2.828 9.07 9.071z"/>
            <path fill="#FFCBA5" d="M105.797 224.195c-.89 1.286-2.107 2.721-3.647 4.305l-6.16-7.18c-1.249-1.33-2.746-2.937-4.49-4.82a122.187 122.187 0 0 0 4.79-6.637c.245-.363.48-.728.706-1.092.085-.678.133-1.321.144-1.93.093-5.084 2.951-9.638 4.878-12.14 2.173-7.001 9.823-11.302 15.73-13.701-.54 1.94-.745 4.408-.616 7.4.099 2.289 1.846 6.156 3.536 9.399 4.73-5.54 10.6-11.066 13.094-6.986 3.37 5.512-5.33 15.76-10.07 20.704-1.617 2.116-11.681 11.422-17.895 12.678z"/>
        </g>
        <g transform="translate(45.897 51.317)">
            <mask id="f" fill="#fff">
                <use xlink:href="#e"/>
            </mask>
            <path fill="#FFCBA5" d="M316.77 186.682c8.814-2.532 14.388-3.465 16.722-2.799 3.5 1 21.8 11.732 21.8 13.876 0 .637.015 1.613.771 3.58.504 1.312 1.396 3.984 2.675 8.016l-2.135-7.64c5.926 4.112 8.889 7.002 8.889 8.668 0 2.5 8.5 33.5 11.5 40 2 4.334 6.833 10 14.5 17-16.334 12.667-25 19-26 19-1.5 0-18.647-20.37-25.323-28.184-6.677-7.816-15.177-24.816-15.177-26.316 0-.814-1.013-6.798-3.976-11.652-2.497-4.09-7.024-7.133-7.024-8.048 0-2-8.89-14.237-6.89-15.8 2-1.562 4-4.262 8-1.2 4 3.063 8.782 8.658 9.89 10.658 1.107 2 11.65 10.625 13.15 10.625s1.25-3.95.35-6.083c-.902-2.133-2.5-9.122-5-12.56-2.5-3.44-2.52-3.44-7-3.44-.682 0-2.326.45-2.59.207-1.016-.94-3.393-3.576-7.132-7.908z" mask="url(#f)"/>
        </g>
        <g transform="translate(281 67)">
            <mask id="h" fill="#fff">
                <use xlink:href="#g"/>
            </mask>
            <circle cy="79" r="61" fill="#FF525E" mask="url(#h)"/>
        </g>
        <path fill="#FFB987" fill-rule="nonzero" d="M401.865 252.413l.635.618c.91 2.285 1.407 4.217 1.965 6.033.559 1.816.375 3.764.375 5.968h-.52c.065-2.27.28-4.077-.349-5.968-.63-1.892-1.24-4.477-2.106-6.651z"/>
    </g>
</svg>
