<svg xmlns="http://www.w3.org/2000/svg" xmlns:xlink="http://www.w3.org/1999/xlink" width="500" height="400" viewBox="0 0 500 400">
    <defs>
        <path id="a" d="M.638.917H306.41V252H.638z"/>
        <path id="c" d="M0 .535h105.477v73.634H0z"/>
        <path id="e" d="M0 .528h105.477V7.88H0z"/>
    </defs>
    <g fill="none" fill-rule="evenodd">
        <path fill="#F0F7CB" d="M178.436 66.21c66.499-2.11 84.442 11.245 121.387 60.516 36.944 49.269 78.107 32.49 121.387 59.88 43.275 27.391 35.13 135.498-6.863 146.94-65.504 17.852-270.746 110.575-314.02-78.38C57.048 66.21 178.435 66.21 178.435 66.21"/>
        <path fill="#2B2D54" d="M175.051 108H70.947A2.94 2.94 0 0 1 68 105.064V28.936A2.94 2.94 0 0 1 70.947 26H175.05A2.943 2.943 0 0 1 178 28.936v76.128a2.941 2.941 0 0 1-2.949 2.936"/>
        <path fill="#FFF" d="M171.451 104H73.55A2.549 2.549 0 0 1 71 101.453V36.547A2.55 2.55 0 0 1 73.549 34h97.902A2.549 2.549 0 0 1 174 36.547v64.906a2.547 2.547 0 0 1-2.549 2.547"/>
        <path fill="#000" d="M93 70.305v-2.643L106.4 58l1.6 2.157-12.082 8.842L108 77.84 106.4 80zM140.537 80L139 77.843l12.048-8.842L139 60.157 140.537 58 154 67.662v2.643zM120 81l8.23-24H131l-8.23 24z"/>
        <path fill="#F1CDA8" d="M356.603 105.847s-13.654-4.947-23.405 9.068c0 0-6.407 6.046-13.652 9.89 0 6.324 1.952 7.422 1.952 7.422s-1.118 4.947-1.952 6.594c-.836 1.65 4.734 3.574 4.734 3.574s-2.399 2.747-4.82 2.198c-2.422-.551-3.258 10.993-1.586 12.366 1.672 1.371 12.816 6.595 16.996 6.87-.836 10.442-.557 18.136-.557 18.136s28.14 7.97 29.812-1.922c1.672-9.895.277-17.59 3.342-18.963 3.065-1.374 16.999-3.296 17.276-10.993.28-7.692 3.9-33.25-28.14-44.24"/>
        <path fill="#586FF9" d="M341.412 101.116s7.817 18.329 10.05 21.941l-10.05 10.554s11.447-5.277 11.447 0-13.4 14.167-12.842 16.667c.56 2.5 9.492 17.776 19.264 16.664 9.766-1.11 26.423-2.077 30.425-13.611 5.304-15.274 8.935-28.052-9.491-35.827-6.7-16.388-9.49-26.666-38.803-16.388"/>
        <path fill="#4281DB" d="M328 181.625s12.344-11.83 33.889-6.02C383.436 181.418 371.932 192 371.932 192L328 181.625z"/>
        <path fill="#F1CDA8" d="M190 138.073s-12.21-14.859-15.305-27.828c-4.367-18.302-3.719-32.989-3.908-37.235-.19-4.241-6.576-6.955-14.36-16.476-7.782-9.518-11.007-11.008-8.334-4.803 2.678 6.204 9.995 13.838 9.995 13.838s-10.026-8.323-11.483-10.752c-1.458-2.427-2.225 1.839-.266 5 1.959 3.163 6.082 9.44 8.152 10.431-6.965-4.071-10.653-9.275-11.08-9.706-.428-.428-4.772-.215-.646 5.204 4.126 5.417 7.927 9.521 9.993 10.081-8.447-3.382-11.497-4.88-10.568-2.427.93 2.452 8.211 6.339 11.284 8.366 0 0 1.405.907 1.374 5.563-.01 1.396.64 7.897 2.131 14.852 3.293 15.353 6.447 31.881 18.35 48.537C185.73 165.268 190 138.073 190 138.073"/>
        <g transform="translate(152 120)">
            <mask id="b" fill="#fff">
                <use xlink:href="#a"/>
            </mask>
            <path fill="#75A9FC" d="M246.254 175.954l-1.245-39.786s21.174 24.452 19.927 26.317c-1.245 1.864-18.682 13.469-18.682 13.469m33.468-70.04C239.91 44.99 153.298 59.6 150.552 59.91c-26.865 3.733-53.145-4.556-71.827-4.142C66.682 51.622 37.203 4.79 27.238 1.477c-9.962-3.32-27.4 8.701-26.571 20.72.83 12.02 31.971 57.193 41.105 65.481 9.134 8.289 40.272 16.993 45.67 19.893 5.398 2.903 24.082.414 28.646 19.48 4.57 19.061-29.896 124.838-29.896 124.838s52.545 3.15 133.326-24.056c14.481-5.375 25.698-9.193 25.698-9.193s16.607-1.658 36.536-14.918c28.457-18.938 37.78-36.885-2.03-97.809" mask="url(#b)"/>
        </g>
        <path fill="#416296" d="M397.22 324a.771.771 0 0 1-.778-.693c-1.511-18.269-1.444-45.285-1.44-45.556 0-.415.35-.751.78-.751h.002c.432 0 .78.339.778.756 0 .268-.07 27.227 1.436 45.433a.76.76 0 0 1-.718.808c-.019.003-.04.003-.06.003M212.774 183a.844.844 0 0 1-.353-.076c-.377-.179-.53-.607-.339-.959.158-.286 4.001-6.993 17.215-5.83.426.039.738.386.7.779-.042.39-.38.682-.844.644-12.13-1.056-15.548 4.804-15.69 5.057a.787.787 0 0 1-.689.385"/>
        <path fill="#EAEAEA" d="M288.471 109h-69.942a2.533 2.533 0 0 1-2.529-2.53V53h75v53.47a2.53 2.53 0 0 1-2.529 2.53"/>
        <path fill="#2B2D54" d="M291 54h-75v-2.8c0-.662.474-1.2 1.058-1.2h72.884c.584 0 1.058.538 1.058 1.2V54z"/>
        <path fill="#E28383" d="M254 97l-14-8.369V74l14 8.369z"/>
        <path fill="#DD6362" d="M254.001 83L240 74.641 254.001 66 268 74.572z"/>
        <path fill="#EDB2B2" d="M254 97l14-8.369V74l-14 8.369z"/>
        <g transform="translate(32 138)">
            <mask id="d" fill="#fff">
                <use xlink:href="#c"/>
            </mask>
            <path fill="#BAC8FF" d="M100.86 74.169H4.619a4.626 4.626 0 0 1-4.619-4.634V5.168A4.626 4.626 0 0 1 4.618.535h96.243c2.551 0 4.616 2.075 4.616 4.633v64.367c0 2.559-2.065 4.634-4.616 4.634" mask="url(#d)"/>
        </g>
        <g transform="translate(32 138)">
            <mask id="f" fill="#fff">
                <use xlink:href="#e"/>
            </mask>
            <path fill="#C1DBF4" d="M105.477 7.88H-.001V5.1C0 2.575 2.066.528 4.618.528h96.243c2.551 0 4.616 2.047 4.616 4.572v2.78z" mask="url(#f)"/>
        </g>
        <path fill="#1F466D" d="M53 212H36.647c-2.566 0-4.647-2.092-4.647-4.671V146h21v66z"/>
        <path fill="#FFF" d="M45.81 157h-6.622C37.98 157 37 155.883 37 154.499c0-1.382.98-2.499 2.188-2.499h6.622c1.207 0 2.19 1.117 2.19 2.499 0 1.384-.983 2.501-2.19 2.501M42.565 167h-5.133c-.789 0-1.432-.67-1.432-1.501 0-.826.643-1.499 1.432-1.499h5.133c.792 0 1.435.673 1.435 1.499 0 .83-.643 1.501-1.435 1.501M42.565 176h-5.133c-.789 0-1.432-.67-1.432-1.501 0-.828.643-1.499 1.432-1.499h5.133c.792 0 1.435.67 1.435 1.499 0 .83-.643 1.501-1.435 1.501M42.565 185h-5.133c-.789 0-1.432-.673-1.432-1.501 0-.828.643-1.499 1.432-1.499h5.133c.792 0 1.435.67 1.435 1.499 0 .828-.643 1.501-1.435 1.501M42.565 193h-5.133c-.789 0-1.432-.673-1.432-1.501 0-.828.643-1.499 1.432-1.499h5.133c.792 0 1.435.67 1.435 1.499 0 .828-.643 1.501-1.435 1.501M65.528 170H62.47c-.81 0-1.469-.672-1.469-1.499 0-.83.659-1.501 1.469-1.501h3.06c.81 0 1.471.672 1.471 1.501 0 .827-.661 1.499-1.472 1.499"/>
        <path fill="#1F466D" d="M70.14 158h-7.283c-1.027 0-1.857-.896-1.857-2.001 0-1.103.83-1.999 1.857-1.999h7.284c1.027 0 1.859.896 1.859 1.999 0 1.105-.832 2.001-1.86 2.001"/>
        <path fill="#FFF" d="M72.546 179H62.454c-.805 0-1.454-.672-1.454-1.5s.65-1.5 1.454-1.5h10.092c.802 0 1.454.672 1.454 1.5s-.652 1.5-1.454 1.5M69.538 188h-7.076c-.807 0-1.462-.672-1.462-1.5s.655-1.5 1.462-1.5h7.076c.807 0 1.462.672 1.462 1.5s-.655 1.5-1.462 1.5M90.572 170h-8.144c-.788 0-1.428-.672-1.428-1.499 0-.83.64-1.501 1.428-1.501h8.144c.788 0 1.428.672 1.428 1.501 0 .827-.64 1.499-1.428 1.499"/>
        <path fill="#1F466D" d="M90.143 158H82.86c-1.027 0-1.859-.896-1.859-2.001 0-1.103.832-1.999 1.86-1.999h7.283c1.025 0 1.857.896 1.857 1.999 0 1.105-.832 2.001-1.857 2.001"/>
        <path fill="#FFF" d="M86.575 179h-4.147c-.79 0-1.428-.672-1.428-1.5s.639-1.5 1.428-1.5h4.147c.786 0 1.425.672 1.425 1.5s-.639 1.5-1.425 1.5M87.585 188h-5.17c-.78 0-1.415-.672-1.415-1.5s.634-1.5 1.415-1.5h5.17c.78 0 1.415.672 1.415 1.5s-.634 1.5-1.415 1.5M106.531 170h-3.062c-.81 0-1.469-.672-1.469-1.499 0-.83.659-1.501 1.469-1.501h3.062c.81 0 1.469.672 1.469 1.501 0 .827-.659 1.499-1.469 1.499"/>
        <path fill="#1F466D" d="M111.143 158h-7.284c-1.027 0-1.859-.896-1.859-2.001 0-1.103.832-1.999 1.86-1.999h7.283c1.025 0 1.857.896 1.857 1.999 0 1.105-.832 2.001-1.857 2.001"/>
        <path fill="#FFF" d="M115.529 179H103.47c-.811 0-1.471-.672-1.471-1.5s.66-1.5 1.471-1.5h12.058c.811 0 1.471.672 1.471 1.5s-.66 1.5-1.471 1.5M120.5 188h-17.003a1.5 1.5 0 0 1 0-3H120.5a1.5 1.5 0 0 1 0 3"/>
    </g>
</svg>
