<svg xmlns="http://www.w3.org/2000/svg" xmlns:xlink="http://www.w3.org/1999/xlink" width="500" height="400" viewBox="0 0 500 400">
    <defs>
        <path id="a" d="M247.067 5.318c-30.87 10.635-50.928 47.47-95.637 66.498C118.177 85.968 26.553 89.859 3.763 134.357c-18.703 36.52 30.894 120.292 180.572 130 149.677 9.708 211.762-27.714 215.65-85.962 0-36.113-51.734-58.655-53.29-95.545-1.554-36.89-9.317-61.611-45.862-77.532-15.264-7.09-33.186-7.09-53.766 0z"/>
    </defs>
    <g fill="none" fill-rule="evenodd">
        <g transform="translate(61 95)">
            <mask id="b" fill="#fff">
                <use xlink:href="#a"/>
            </mask>
            <use fill="#E6F7FF" xlink:href="#a"/>
            <path fill="#FF525E" d="M201.034 187.065l-56.458 38.26 8.758 14.11c27.391-10.294 45.034-16.722 52.929-19.28 11.841-3.84 28.11-21.454 32.094-33.09 1.143-3.337 7.492-33.508 3.417-60.49-3.016-19.967 10.919-39.81-.83-39.81-10.425 0-25.195 12.321-31.476 34.553-2.593 9.179-5.404 31.094-8.434 65.747z" mask="url(#b)"/>
            <path fill="#4B0085" d="M309.936 226.478s4.147 10.533 4.147 22.702c0 12.17-4.343 28.896-2.974 36.12l-106.958-.156 13.026-52.3 39.555-6.366h53.204z" mask="url(#b)"/>
            <path fill="#FF525E" d="M221.4 235.63c-.384 9.4 13.799 1.073 25.103 3.706 11.304 2.633 24.36 5.668 39.183 6.635 6.128.4 24.746 2.254 28.087-1.034 3.82-3.76 1.12-32.566 1.47-39.589.657-13.165 7.921-43.3 4.375-60.68-3.547-17.38-3.054-40.046-48.559-59.248 0 0 1.56 9.875-15.825 10.106-7.44.1-11.917-8.286-17.7-1.557-7.918 9.21-16.52 58.94-16.904 87.892-.385 28.953 1.154 44.37.77 53.77z" mask="url(#b)"/>
            <path fill="#C7C8C9" d="M190.238 285.39L87.142 244.783c-3.033-1.194-3.683-5.194-1.185-7.286l45.602-38.17a4.304 4.304 0 0 1 4.202-.755l110.355 39.192c3.231 1.148 3.883 5.427 1.139 7.482l-52.861 39.587a4.305 4.305 0 0 1-4.156.559" mask="url(#b)"/>
            <path fill="#DBDADA" d="M188.693 287.454L80.94 245.01a2.133 2.133 0 0 1-1.266-1.388l-23.585-80.89c-.496-1.702 1.183-3.23 2.833-2.58l111.367 43.866c.64.253 1.12.798 1.287 1.465l19.971 79.468c.424 1.683-1.236 3.139-2.853 2.502" mask="url(#b)"/>
            <path fill="#4D67FF" d="M204.65 3.648s-3.017 7.809-.933 17.728c.933 1 2 .333 5.213-1.084 3.214-1.417 7.991-3.367 12.487-3.726 4.496-.358-10.409-16.393-16.767-12.918" mask="url(#b)"/>
            <path fill="#4D67FF" d="M209.843-7.547s-9.726 8.145-6.204 28.533c.256 1.486 6.644-11.363 6.644-11.363l-.44-17.17z" mask="url(#b)"/>
            <path fill="#4D67FF" d="M209.843-7.547s-9.586 8.121-6.204 28.533c.337 2.039 6.644-11.363 6.644-11.363" mask="url(#b)"/>
            <path fill="#FFD1AF" d="M207.975 248.105c-.931.163-1.972.452-3.113.895-5.801 2.25-7.89 0-3.54-1.875 1.69-.728 4.813-1.728 7.977-2.625.808-.23 2.013-.479 3.613-.749 2.092-.595 5.628-1 7.683-1.717 8.139-2.838 18.532-9.891 31.491-18.719 8.949-6.095 20.994-15.724 27.89-19.468.156-.085-1.418-14.98-1.5-16.473-1.317-23.96-1.317-26.562 0-49.355 4.396-26.562 33.832-37.305 34.768-14.834 0 0 5.275 61.779-10.394 83.815-13.561 19.072-45.686 37.64-74.007 45.517-1.004.28-5.877 3.755-7.498 4.493-5.493 2.499-12.273 5.412-15.746 5.99-3-1.498 9.792-6.272 7.682-6.739-1.524-.338-12.93 7.823-14.43 6.325-1.5-1.497 12.372-7.162 11.307-7.822-1.067-.662-14.386 8.985-15.806 6.738-1.42-2.246 13.542-7.945 13.42-8.985-.134-1.138-12.591 6.74-13.42 5.99-2.1-1.896 5.644-4.846 11.247-8.236.759-.46 1.572-1.273 2.376-2.166z" mask="url(#b)"/>
            <path fill="#FF525E" d="M243.954 86.51s3.052 5.512 11.832 6.04c8.78.53 13.592-8.264 13.592-8.264s6.762-2.09 6.651 5.245c-.111 7.335-38.65 16.58-38.65 16.58l2.635-15.802 3.94-3.799zM277.41 203L223 240l8.44 13.647c26.397-9.956 43.4-16.172 51.008-18.647 11.412-3.713 27.091-20.747 30.93-32 1.1-3.227 7.22-32.405 3.293-58.5-2.907-19.31-4.645-33.5-15.967-33.5-10.048 0-23.596 11.744-25.459 33.5-.82 9.57-.098 29.07 2.164 58.5z" mask="url(#b)"/>
            <path fill="#FF3947" d="M310.553 210.185c-1.512 3.305-5.047 6.992-9.807 11.032-2.46 2.088-7.709 5.206-15.746 9.354 16.118-8.462 25.274-14.048 27.47-16.756 3.292-4.063 1.994-19.1 1.994-20.66 0-1.561-.242 9.012-3.911 17.03zM212.203 213.653c-1.244 1.42-2.929 3.484-5.053 6.189 2.828-1.129 5.322-2.481 7.48-4.058a91.902 91.902 0 0 0 6.223-4.968c.254-.457.437-3.063.548-7.816.308-13.066-1.067 1.368-9.198 10.653z" mask="url(#b)"/>
            <path stroke="#FE3543" d="M289.193 200.714c-7.816-.476-13.584.286-17.303 2.286-3.72 2-15.442 10.93-35.168 26.788M280.488 131.5c-5.372 17.667-6.378 40.5-3.02 68.5" mask="url(#b)"/>
        </g>
        <g transform="translate(48 41.158)">
            <path fill="#FFCBA5" d="M219.669 89.666c3.418 8.404 1.051 14.707 0 17.596-1.052 2.889-2.367 4.202.263 4.465 2.629.262 6.31-.263 7.887 2.1 1.578 2.364 4.208 11.03 8.151 11.03 3.945 0 10.255-2.888 13.147-3.15 2.893-.263 5.522 0 6.837 5.252 1.314 5.252.326 14.223.326 14.223s3.333 5.766 11.484 5.766 14.67-6.35 15.721-11.077l-2.29-30.447-11.306-5.778c11.306-4.804 11.57-10.788 6.837-16.304-4.733-5.515-15.07 3.196-20.772-8.908-1.877-3.985-12.294-3.466-16.308-6.88-3.313-2.818-9.182 3.388-11.691 1.157-2.016-1.793-3.572-3.277-4.342-4.257 0 0-7.625 2.364-7.888 9.98-.027.787.526 6.828 3.944 15.232z"/>
            <path fill="#4E67FF" d="M239.061 33.63c-8.613 2.41-15.4 10.641-18.683 16.52-3.704 6.633-1.878 8.525-2.219 11.674-.213 1.971 6.566-7.411 6.52-5.196-.177 8.29 6.443 19.154 13.79 19.41 6.481.227 13.589 11.589 18.442 11.758 4.853.17 9.443 8.874 6.207 8.76-1.242-.043 2.024 6.109-.262 7.503-3.667 2.236-2.029 6.256-2.029 6.256s7.717-2.908 14.373 3.213c2.919 2.684 2.158 16.102 2.734 25.404.731 11.79 16.334 13.619 20.136 19.684 4.877 7.783 1.653 22.543 6.162 30.947 4.51 8.408 22.661 13.06 29.574 11.88 21.405-3.657 22.49-34.735 13.218-44.732-7.815-8.428-26.027-13.564-31.207-13.744-9.203-.322-10.251-17.532-12.333-26.643-2.082-9.112-16.584-6.422-15.259-12.832.448-2.166 5.759-10.845 9.845-18.15 7.589-13.567 2.135-29.035-9.592-40.948-18.383-18.675-40.804-13.175-49.417-10.764z"/>
            <path fill="#F5A623" d="M290.864 98.763c-1.167-.184-11.35 3.908-14.632 5.67-3.28 1.762-.877 10.13 2.835 8.436 3.711-1.695 18.373-2.795 16.746-7.617-1.627-4.822-3.783-6.304-4.95-6.489z"/>
            <ellipse cx="230" cy="124" fill="#2520A0" rx="4" ry="3"/>
            <path fill="#2520A0" d="M232.12 126.75c2.596.254 2.811.417 5.77.363 2.957-.054 8.026.537 13.441-2.337 5.415-2.874 13.567-10.949 16.889-24.434-5.712-4.27-5.762-3-7.244 2-1.482 5-2.07 12.417-10.428 18-8.357 5.584-14.09 3.26-18.994 2.931-1.152-.1-3.443-1.23-3.443-1.23s-1.528-.736-.385 3.335c1.851 1.17 1.798 1.12 4.394 1.372z"/>
            <path fill="#4D67FF" d="M227.091 41.269s-16.438 16.912-13.12 31.404c3.32 14.49 3.246 9.835 3.246 9.835s-1.418-7.17 2.08-10.666c0 0 4.187 3.501 11.088 6.5 6.902 3 11.128 1.642 16.71 4.166 5.582 2.524 6.685 14.242 7.268 7.834.063.075 5.69.086 5.727 0 .579-1.325-7.187-20.19-5.727-9.615 9.33-15.533 1.028-14.92 1.028-14.92l-28.3-24.538z"/>
            <path fill="#2520A0" d="M271.443 85.571a10.266 10.266 0 0 1 0 14.535c-4.02 4.013-10.537 4.013-14.557 0a10.267 10.267 0 0 1 0-14.535c4.02-4.014 10.537-4.014 14.557 0"/>
            <path fill="#4D67FF" d="M231.026 38.667s-17.936 6.21-17.488 30.557c7.446-8.272 8.613-8.66 8.613-8.66l8.875-21.897z"/>
            <path fill="#A998FF" d="M156.315 146.842h-92.63A4.7 4.7 0 0 1 59 142.156V72.528a4.7 4.7 0 0 1 4.685-4.686h92.63A4.7 4.7 0 0 1 161 72.528v69.628a4.7 4.7 0 0 1-4.685 4.686"/>
            <path fill="#FFCBA5" d="M97.864 105.471s2.403-.97 4.127-4.26c1.723-3.288 4.912-12.694 6.255-15.245 1.343-2.551 1-3.124 2.825-3.124 1.826 0 5.469.464 3.84 6.052-1.628 5.588-2.579 9.322-1.84 11.144.74 1.822 8.487.651 10.648 1.174 1.961.473 4.32-1.604 5.281 3.63.027.147-1 1.36 0 1.36.646 0 .925 1.411.906 3.14-.01.946.268 1.815-.406 3-.809 1.423-.604 3.516-1 5-.22.825-1.36 2.559-1.572 3.5-.193.857-1.486 5.073-3.89 5-5.123-.154-16.148.155-20.686-.899-2.57-.597-6.852-3.213-10.598-3.16-3.746.052-1.863-.014-1.863-.014l.055-15.567 7.918-.731z"/>
            <path fill="#FFE400" d="M87.563 123.5c-1.51-1.984-.71-15.502-.278-18.922.433-3.42 9.727-2.747 10.401-.253.676 2.494.328 17.914-.867 19.773-.895 1.392-7.746 1.384-9.256-.599z"/>
            <path fill="#A998FF" d="M161 158.842l-18.326-13.095a2.427 2.427 0 0 1 .47-3.739l14.168-8.799c1.61-1 3.688.161 3.688 2.06v23.573z"/>
            <path fill="#FF9D01" d="M36 71.788v9.054l-7.704-6H3.099C1.394 74.842 0 73.468 0 71.788V48.896c0-1.68 1.394-3.054 3.099-3.054H32.9c1.705 0 3.099 1.375 3.099 3.054v22.892z"/>
            <path fill="#FFCBA5" d="M13.718 60.37s.902-.365 1.55-1.6c.646-1.235 1.844-4.767 2.348-5.725.504-.958.977-1.85 1.88-1.79.903.06 1.235.791.623 2.89-.611 2.098-.968 3.5-.69 4.185.276.684 2.93.399 3.742.595.812.196 3.192.366 3.291 2.978.099 2.613.45 4.984-2.204 5.779-2.542.76-7.151.396-8.855 0-.965-.224-2.573-1.207-3.98-1.187-1.407.02-.7-.005-.7-.005l.022-5.846 2.973-.274z"/>
            <path fill="#4D67FF" d="M12.325 67.364c-.336.523-2.908.52-3.476-.225-.567-.744-.266-5.82-.104-7.105.163-1.284 3.653-1.031 3.906-.095.254.937.123 6.727-.326 7.425"/>
            <path fill="#00D2A3" d="M157.647 29.842L151 35.903V3.896c0-1.68 1.394-3.054 3.099-3.054H184.9c1.705 0 3.099 1.375 3.099 3.054v22.892c0 1.68-1.394 3.054-3.099 3.054h-27.254z"/>
            <path fill="#FFCBA5" d="M166.454 15.466s.903-.365 1.55-1.6c.647-1.234 1.844-4.767 2.349-5.725.504-.958 2.689-2.799 2.502 1.1-.186 3.899-.968 3.5-.69 4.185.277.684 2.931.4 3.743.596.81.196 3.191.365 3.29 2.978.1 2.612-.413 4.983-3.067 5.778-2.542.76-6.288.396-7.992 0-.964-.224-2.572-1.207-3.979-1.187-1.407.02-.7-.005-.7-.005l.021-5.846 2.973-.274z"/>
            <path fill="#2520A0" d="M166.062 22.46c-.336.523-2.909.52-3.476-.224-.567-.745-.267-5.821-.104-7.105.162-1.285 3.652-1.032 3.906-.096.253.937.122 6.728-.326 7.425"/>
        </g>
    </g>
</svg>
