<svg xmlns="http://www.w3.org/2000/svg" xmlns:xlink="http://www.w3.org/1999/xlink" width="500" height="400" viewBox="0 0 500 400">
    <defs>
        <path id="a" d="M203.393 16.594C131.62 65.443 112.332 74.489 37.868 110.37c-58.315 29.395-40.868 101.814 0 115.005 40.868 13.19 42.664 12.187 67.939 18.343 25.274 6.157 63.451 52.157 112.661 52.157 147.554 0 173.327-90.834 169.29-168.646 0-93.868-112.593-159.484-184.365-110.635z"/>
        <linearGradient id="b" x1="50%" x2="81.616%" y1="32.957%" y2="69.239%">
            <stop offset="0%" stop-color="#FFCBA5"/>
            <stop offset="100%" stop-color="#FFC092"/>
        </linearGradient>
        <path id="c" d="M196.849 11.363c-11.817 5.23-21.993 7.846-30.527 7.846-12.802 0-83.854 26.037-83.854 21.133 0-4.903-1.829 3.045-1.829 7.948 0 4.904 42.344 40.21 56.13 40.21 13.787 0 20.574 60.002 21.462 72.696.888 12.695 10.299 31.18 34.352 29.5 24.054-1.682 65.832-17.76 72.309-28.87 6.476-11.11 4.357-61.914 6.256-72.79 3.388-19.397 7.491-32.002 7.491-43.697 0-18.634-11.18-40.415-27.729-43.836-11.032-2.28-29.053 1.006-54.061 9.86z"/>
        <path id="d" d="M202.393 16.719c-71.772 48.849-91.061 57.896-165.525 93.776-58.315 29.396-39.923 116.286 3.14 126.229 0 0 39.524.963 64.799 7.12C130.081 250 168.258 296 217.468 296c147.554 0 173.327-90.833 169.29-168.646 0-93.867-112.593-159.484-184.365-110.635z"/>
    </defs>
    <g fill="none" fill-rule="evenodd">
        <use fill="#FFE9F4" transform="translate(42 63.125)" xlink:href="#a"/>
        <path fill="#FFC092" d="M277.111 90.074c1.814-1.483 6.09-2.503 7.09-2.662.666-.105 3.86.3 9.581 1.217 8.506 5.579 13.449 8.772 14.829 9.578 1.38.807 4.378 5.984 8.996 15.533 5.1 6.13 8.231 10.347 9.393 12.653 1.129 2.24 6.422 7.529 15.492 19.607.178.238-6.22 2.27-19.197 6.093l-8.392-14.186c-3.017-1.8-5.095-3.065-6.235-3.796-1.71-1.096-7.368-7.718-7.368-7.718l-11.531-7.058-6.51-20.627c.373-.515 1.428-.682 3.164-.5 1.735.18 4.296.9 7.682 2.159a235.39 235.39 0 0 1-2.746-3.324c-.575-.717-1.469-2.544-1.843-2.687-.966-.37-2.752-.084-4.339-.777-1.467-.64-2.107-1.45-1.92-2.43l-5.83.924c-.499.08-2.13-.516-.316-2z"/>
        <path fill="#FFAD72" d="M290 96c6.221 2.628 9.331 4.716 9.331 6.264 0 2.323 2.04 9.736 1.131 9.736-.908 0-6.664-2.695-7.728-2.695-.709 0-1.62-4.435-2.734-13.305z"/>
        <path fill="#212121" d="M287.841 120.106c-5.921 3.008-12.893 1.747-17.444-2.615l-.52.265-1.508.765-4.439 2.256-1.144.581-.883.449c.823 6.256-2.28 12.635-8.203 15.644-7.502 3.812-16.702.793-20.51-6.73-3.81-7.524-.805-16.745 6.698-20.557l7.457-3.789 19.224-9.766 7.458-3.79c7.503-3.81 16.702-.79 20.51 6.734 3.81 7.524.806 16.742-6.696 20.553"/>
        <path fill="#FFE400" d="M246.218 117.973a1.97 1.97 0 0 1 .505 2.736 1.959 1.959 0 0 1-2.728.505 1.97 1.97 0 0 1-.506-2.736 1.959 1.959 0 0 1 2.729-.505"/>
        <path fill="#33A853" d="M250.234 127.215a1.97 1.97 0 0 1 .505 2.735 1.959 1.959 0 0 1-2.728.505 1.97 1.97 0 0 1-.506-2.736 1.959 1.959 0 0 1 2.729-.504"/>
        <path fill="#FF4A62" d="M243.632 124.145a1.97 1.97 0 0 1 .506 2.735 1.959 1.959 0 0 1-2.729.505 1.97 1.97 0 0 1-.505-2.735 1.959 1.959 0 0 1 2.728-.505"/>
        <path fill="#00C4EC" d="M253.239 120.956a1.97 1.97 0 0 1 .506 2.736 1.959 1.959 0 0 1-2.729.505 1.97 1.97 0 0 1-.505-2.736 1.958 1.958 0 0 1 2.728-.505M286.594 104.014l-8.674 4.11a.21.21 0 0 1-.28-.1l-.594-1.258a.211.211 0 0 1 .1-.28l8.675-4.11a.21.21 0 0 1 .28.1l.593 1.257a.212.212 0 0 1-.1.281"/>
        <path fill="#00C4EC" d="M283.107 109.986L279 101.288a.212.212 0 0 1 .1-.28l1.254-.595a.21.21 0 0 1 .28.1l4.106 8.7a.211.211 0 0 1-.1.28l-1.253.594a.21.21 0 0 1-.28-.1"/>
        <path fill="#9986FE" d="M330.747 125.835L311.923 140.5 324.5 167l31-13.5z"/>
        <g>
            <path fill="#FFC092" d="M175.32 201.814c.742-.104 6.403 2.764 7.498 3.073 1.095.31 17.922 10.3 19.589 12.184 1.667 1.884 17.028 6.433 17.028 6.433l-5.421 16.295s-15.65-9.097-16.338-9c-.687.096-6.968-2.199-9.03-1.909-2.063.29-9.336-3.277-10.115-4.227-.519-.633-1.186-2.187-2.001-4.661-1.302-12.055-1.705-18.118-1.21-18.188z"/>
            <path fill="#212121" d="M174.4 226.966c-5.61 3.64-12.723 3.116-17.737-.767l-.494.32-1.428.927-4.206 2.727-1.085.703-.836.542c1.482 6.174-.952 12.887-6.565 16.527-7.109 4.61-16.636 2.564-21.241-4.562-4.605-7.125-2.569-16.672 4.54-21.282l7.067-4.582 18.216-11.812 7.066-4.583c7.11-4.61 16.638-2.562 21.242 4.564 4.605 7.126 2.57 16.67-4.538 21.278"/>
            <path fill="#FFE400" d="M130.129 230.848a1.982 1.982 0 0 1 .794 2.684 1.973 1.973 0 0 1-2.678.794 1.982 1.982 0 0 1-.794-2.683 1.973 1.973 0 0 1 2.678-.795"/>
            <path fill="#33A853" d="M135.122 239.671a1.981 1.981 0 0 1 .794 2.683 1.972 1.972 0 0 1-2.677.795 1.981 1.981 0 0 1-.795-2.684 1.972 1.972 0 0 1 2.678-.794"/>
            <path fill="#FF4A62" d="M128.19 237.299a1.981 1.981 0 0 1 .795 2.683 1.972 1.972 0 0 1-2.678.795 1.982 1.982 0 0 1-.794-2.684 1.972 1.972 0 0 1 2.678-.794"/>
            <path fill="#00C4EC" d="M137.472 233.09a1.982 1.982 0 0 1 .794 2.683 1.972 1.972 0 0 1-2.678.794 1.982 1.982 0 0 1-.794-2.683 1.973 1.973 0 0 1 2.678-.795M171.903 211.14l-9.97 7.003c-.106.074-.249.03-.317-.099l-.955-1.797c-.069-.128-.038-.293.068-.368l9.97-7.003c.106-.074.248-.03.316.098l.957 1.798c.067.128.037.293-.069.368"/>
            <path fill="#00C4EC" d="M168.686 219.097l-7.003-9.97c-.075-.106-.03-.249.098-.317l1.797-.956c.129-.068.294-.037.369.069l7.002 9.97c.074.105.03.248-.097.316l-1.798.956c-.128.068-.293.038-.368-.068"/>
            <path fill="url(#b)" d="M70.414 8.366h-3.228c-1.434 0-2.51 1.06-3.945.707-1.434-.354-3.228-1.096-3.228-.707 0 .39-.358 2.472.718 3.531 1.076 1.06 3.586 1.766 5.02 1.766h2.511c.478 1.883.957 3.178 1.435 3.884.717 1.06 3.228 6.71 5.38 6.71 2.151 0 7.531-1.766 6.814-4.238-.718-2.472-10.76-11.653-11.477-11.653z" transform="rotate(-8 1523.76 -708.824)"/>
            <path fill="#FFB37B" fill-rule="nonzero" d="M183.585 211.23l.83-.557c1.988 2.965 3.477 4.998 4.457 6.089.908 1.01 1.941 1.503 3.128 1.503v1c-1.48 0-2.78-.62-3.872-1.835-1.02-1.135-2.531-3.198-4.543-6.2z"/>
        </g>
        <g>
            <g transform="rotate(4 -1694.174 2472.31)">
                <path fill="#293B68" d="M264.73 140.819s16.225 13.065-6.222 46.33c-22.445 33.266-66.85 45.985-94.663 34.733-27.813-11.251-74.169-93.437-86.856-102.732-12.686-9.294-8.086 3.617-8.086 3.617l-50.649 47.66S9.777 190.972 4.431 185.44c-1.42-1.47-4.516-6.654-4.107-11.172l58.068-88.134s8.245-17.115 23.372-18.093c0 0 7.049-17.107 18.542-16.144 11.494.964 66.437 53.528 66.437 53.528l97.988 35.393z"/>
                <path fill="#27352C" d="M5.385 171.841c-7.862 10.317 18.358 18.656 32.822 33.291 14.465 14.635 39.366 50.878 71.65 48.62 32.285-2.257 50.387-8.52 51.687-30.68 1.301-22.158-10.258-40.68-18.704-47.31-46.798-26.391-77.189-40.18-91.172-41.365-10.789-.914-38.618 27.385-46.283 37.444z"/>
                <use fill="#A998FF" xlink:href="#c"/>
            </g>
            <path fill="#FFC092" d="M339.819 62.84c-4.297 5.687-6.579 9.756-6.844 12.208-.397 3.678 2.84 7.8 1.874 9.919-.966 2.118-.597 5.517-1.278 8.415-.682 2.898-2.954 20.51-1.535 24.41 1.42 3.9-.511 8.136 4.259 11.7 4.77 3.564 19.337-1.738 20.103-2.017.767-.279 4.543 12.48 4.713 17.719.17 5.238-.95 5.238-.029 7.077.922 1.84 10.989 3.951 19.223 2.72 8.235-1.23 16.493-5.344 18.201-8.848 1-2.05-1.253-5.052-2.5-9.18-.772-2.554-.772-8.945 0-19.171-22.22-34.525-33.519-52.308-33.897-53.348-.379-1.04-7.809-1.574-22.29-1.604z"/>
            <path fill="#4664FF" fill-rule="nonzero" d="M348.226 96.027l-.563 1.39-22.944-9.286.563-1.39z"/>
            <path fill="#4664FF" fill-rule="nonzero" d="M334.138 80.452l.423 1.277c-5.692 1.204-8.778 4.485-8.778 9.674 0 4.545 1.594 6.594 4.671 7.694.411.147 1.694.593 2.163.667l-.194 1.442c-.442-.094-1.977-.52-2.474-.697-3.649-1.304-5.666-3.897-5.666-9.106 0-5.925 3.494-9.605 9.855-10.95z"/>
            <path fill="#4664FF" d="M347.113 44.31c-3.342.338-15.38 2.964-13.243 13.595 2.137 10.63 11.491 11.856 12.243 12.218.502.242.974.362 1.417.362-3.574 3.641-5.588 6.422-6.044 8.343-.684 2.882 3.265 13.73 3.829 15.28.376 1.034 1.159 2.137 2.348 3.31 1.365-3.255 2.877-5.193 4.536-5.815 2.489-.933 6.269 2.984 5.202 6.005-1.066 3.02-1.206 6.265-.89 8.222.316 1.957 3.019 10.168 4.81 12.259 1.791 2.09 9.489 7.987 15.971 9.138 6.483 1.15 13.248 3.077 16.508.135s7.29-8.155 9.538-16.635c1.498-5.654 1.672-8.35.52-8.088 4.158-5.389 6.707-10.054 7.648-13.996 1.41-5.912-2.016-20.513-4.396-22.291-1.587-1.186-3.869-2.696-6.846-4.53-1.236-6.57-3.25-10.517-6.043-11.842-4.187-1.986-11.999-4.408-17.635-3.234-5.637 1.174-26.131-2.775-29.473-2.437z"/>
        </g>
        <g transform="translate(43 62)">
            <mask id="e" fill="#fff">
                <use xlink:href="#d"/>
            </mask>
            <path fill="#FFC092" d="M165.5 157.844l-7.5 11.743 13 2.241 16-6.992c6.85-2.2 7.767-3.301 2.75-3.301-5.018 0-13.101-1.23-24.25-3.69z" mask="url(#e)"/>
            <path fill="#FFE43A" d="M180.272 160.794c-9.994 2.03-12.328 3.25-19.24 6.876-6.912 3.626-15.08 18.86-19.529 34.095-2.966 10.158-4.467 17.604-4.503 22.34 5.07 6.726 11.139 10.542 18.205 11.447 7.067.905 10.777 1.023 11.13.356.111.263.526 2.797 1.244 7.6 1.077 7.207 4.126 9.62 4.126 24.637 0 15.018 4.048 15.336 11.076 19.382 7.028 4.046 24.536 8.84 36.424 8.618 33.993-.633 37.317-11.633 41-18.907 4.605-9.093 3.132-11.665 4.605-26.593 1.472-14.928-1.21-27.287 1.895-29.428 3.105-2.141 5.155-18.288 7.142-29.393 1.987-11.104-2.649-30.486-9.037-37.122-6.389-6.636-16.02-6.708-25.793-2.865-9.773 3.842-48.75 6.928-58.745 8.957z" mask="url(#e)"/>
            <g mask="url(#e)">
                <path fill="#FFCBA5" d="M180 102c.705 6.574 1.038 11.074 1 13.5-.093 5.95 2.845 14.49 3.5 16.02 2.132 4.975 2.084 3.137 2.5 4.48 1.21 3.908 4.197 7.546 6.169 8.557 3.255 1.67 6.863 0 8.001 0 2.742 0 5.483 9.822 2.742 10.992-2.742 1.17-3.807 2.517-10.155 3.21-1.471.162-5.917.74-5.975.914-.718 2.156 5.888 6.042 13.388 8.327 9.445 2.877 32.112-1.273 34.33-8.502 2.218-7.229-8.443-5.595-6.78-11.017 1.664-5.422-1.186-32.376-8.633-41.758-4.872-6.139-13.859-8.64-37.65-4.723-.302.05-1.114.05-2.437 0z"/>
                <path fill="#4664FF" d="M214.867 63.67c-11.42-2.498-19.872-1.541-25.352 2.87C181.294 73.156 176.5 87.97 176.5 93.97s.68 10.465 6 16.529c3.547 4.043 6.702 6.15 9.465 6.32l-3.725-11.743s5.699 12.878 8.989 14.77c3.29 1.893 1.773 4.511 3.268 7.989C201.99 131.313 219 140.288 219 140.288s-7.635 18.997-7 25.471c.635 6.474 4.921 22.307 4.519 29.057-.402 6.75-3.28 20.803-9.048 26.212-5.767 5.41-4.608 5.166 1.394 5.166s16.536-1.75 28.023-16.694c4.067-5.29 8.771-24.35 8.28-32.628-.453-7.616-5.4-16.371-6.65-20.018-2.61-7.61-10.105-12.087-5.754-16.566 4.35-4.48 13.926-7.625 19.236-16.788 5.31-9.163 10-30.993 2.85-44.5-7.151-13.507-13.515-14.068-21.89-16.269-5.585-1.466-11.616-1.154-18.093.939z"/>
                <path fill="#1E35AA" d="M233.34 139.931s-7.88-1.013-11.251-.768c-3.372.246-6.23.708-3.923 1.917 2.307 1.208 9.111.621 12.173.83 3.063.21 3.001-1.979 3.001-1.979z"/>
            </g>
            <path fill="#FFCBA5" d="M138.46 225.44l-6.383 15.243s-30.065-22.4-30.065-27.683c0-5.282-6.25 8.172-6.25 11.19 0 3.019 21.01 35.212 27.53 43.85 6.522 8.639 16.33 14.145 23.876 2.072 5.03-8.05 11.518-19.499 19.462-34.349-7.87-.102-13.099-.732-15.686-1.89-9.64-4.318-9.45-5.353-12.483-8.432z"/>
            <path fill="#FFCBA5" d="M87.033 182.202c.675-1 1.57-.557 4.266-.557 2.696 0 3.661 1.53 3.661 1.53s2.048 2.255 2.54 4.037c.492 1.783 1.237 3.079 1.19 4.408-.046 1.328.415 7.331-.313 8.969-.728 1.637-.104 2.99-.116 3.322-.011.332 5.37 9.5 6.329 10.864.958 1.364 29.498 29.3 29.498 29.3s-13.38 19.722-17.204 13.934c-3.822-5.787-28.744-42.811-28.709-43.808.035-.996-6.491-6.213-7.75-8.585-1.259-2.372-1.549-3.666-1.549-3.666s-2.585-2.798-2.55-3.794l.069-1.993c-.831-1.803-1.236-3.037-1.212-3.701.023-.665.427-2.414 1.212-5.25-2.292-4.029-3.464-6.675-3.517-7.94-.08-1.896.563-4.166 1.256-4.807.693-.641 1.276-.743 1.276 0s.884 2.225 1.564 3.194c.68.97 2.731 3.928 5.043 6.341 2.217 2.313 4.43 3.038 4.753 3.212.658.356 3.638 1.117 3.638 1.117V187c0-.212-.145-.895-1.19-1.517-1.044-.621-2.86-2.281-2.185-3.281z"/>
        </g>
        <g>
            <path fill="#FFF" d="M482.5 276l-10.5 6 10.5 6z"/>
            <path fill="#4D92EA" fill-rule="nonzero" d="M174.287 161v11.287L163 163.634 174.287 161zm-6.713 3.62l4.713 3.613v-4.713l-4.713 1.1z"/>
            <path fill="#05A593" d="M202 31l-10 9.1 10 3.9z"/>
            <path fill="#FB3D3F" d="M125.099 100.386l-1.754 5.737L109 101.738 110.754 96z"/>
            <path fill="#FFCA2E" d="M203.192 79H197l2.596 14H206zM112.797 57.521l-.155-6.08-13.31 1.44.155 6.08z"/>
            <path fill="#2881F8" d="M56 131l10.411 8L54 141.5z"/>
            <path fill="#05A593" fill-rule="nonzero" d="M77.54 155.582a1 1 0 1 1-.279-1.98l6.132-.863a4 4 0 0 1 4.518 3.405l.444 3.161a2 2 0 0 0 2.26 1.702l3.16-.444a4 4 0 0 1 4.518 3.404l.445 3.162a2 2 0 0 0 2.259 1.702l3.16-.444a4 4 0 0 1 4.519 3.404l.444 3.161a2 2 0 0 0 2.259 1.703l6.132-.862a1 1 0 0 1 .278 1.98l-6.132.862a4 4 0 0 1-4.518-3.404l-.444-3.162a2 2 0 0 0-2.259-1.702l-3.161.445a4 4 0 0 1-4.518-3.405l-.444-3.161a2 2 0 0 0-2.259-1.702l-3.161.444a4 4 0 0 1-4.518-3.404l-.444-3.162a2 2 0 0 0-2.26-1.702l-6.131.862z"/>
            <path fill="#FF3A41" fill-rule="nonzero" d="M253.908 88.487a1 1 0 0 1-1.312-1.51l4.674-4.062a2 2 0 0 0 .197-2.822l-2.094-2.41a4 4 0 0 1 .394-5.642l2.41-2.095a2 2 0 0 0 .197-2.821l-2.095-2.41a4 4 0 0 1 .395-5.642l2.41-2.095a2 2 0 0 0 .197-2.821l-4.063-4.674a1 1 0 0 1 1.51-1.312l4.062 4.673a4 4 0 0 1-.395 5.644l-2.409 2.094a2 2 0 0 0-.197 2.821l2.094 2.41a4 4 0 0 1-.394 5.643l-2.41 2.094a2 2 0 0 0-.197 2.822l2.094 2.41a4 4 0 0 1-.394 5.642l-4.674 4.063z"/>
        </g>
        <path fill="#FFC092" d="M281.187 107.962c2.192 0 3.758.493 5.167 0 1.41-.493 2.703-.737 3.737-.197 1.033.54 8.477 4.468 9.417 4.468.94 0 1.787 14.449-.562 13.134-2.349-1.314-9.839-8-10.778-8.657-.94-.657-3.223-.572-4.319-1.21-1.096-.64-4.384-.817-4.854-3.267-.47-2.45 0-4.271 2.192-4.271z"/>
    </g>
</svg>
