<svg xmlns="http://www.w3.org/2000/svg" xmlns:xlink="http://www.w3.org/1999/xlink" width="520" height="400" viewBox="0 0 520 400">
    <defs>
        <path id="a" d="M.724 173c0 81.805 70.692 120 130.72 120 38.443 0 50.492-30.208 89.554-35.792 39.062-5.583 127.381 15.53 167.683-51.471 40.303-67 11.61-168.532-139.782-199.78C97.508-25.29.724 91.195.724 173z"/>
    </defs>
    <g fill="none" fill-rule="evenodd">
        <g transform="translate(57 68)">
            <mask id="b" fill="#fff">
                <use xlink:href="#a"/>
            </mask>
            <use fill="#FFE7D7" xlink:href="#a"/>
            <g mask="url(#b)">
                <path fill="#F3F3F3" d="M166.447 27.983V165.25l8.911 8.916 8.734-8.739 8.733 8.739 8.734-8.739 8.734 8.739 8.734-8.739 8.734 8.739 8.734-8.739 8.734 8.739 8.734-8.739 8.734 8.739 8.91-8.916h.12V27.983c0-1.04-.843-1.884-1.883-1.884H168.33c-1.04 0-1.883.843-1.883 1.884"/>
                <path fill="#4D67FF" d="M248.063 58.871h-2.307c-1.801 0-3.208-1.577-3.04-3.378.17-1.577 1.633-2.76 3.209-2.76h2.701c1.013 0 1.857.732 2.082 1.69.056.281.282.45.563.45h3.095c.338 0 .62-.281.62-.619a6.44 6.44 0 0 0-5.966-5.744v-3.04a.625.625 0 0 0-.619-.62h-3.04a.625.625 0 0 0-.619.62v3.097a7.303 7.303 0 0 0-6.303 7.996c.394 3.829 3.77 6.588 7.598 6.588h1.97c1.8 0 3.208 1.577 3.039 3.378-.169 1.577-1.632 2.76-3.208 2.76h-2.701c-1.014 0-1.858-.732-2.083-1.69a.548.548 0 0 0-.563-.45h-3.095c-.338 0-.675.282-.62.62a6.44 6.44 0 0 0 5.966 5.743v3.04c0 .339.282.62.62.62h3.04a.625.625 0 0 0 .618-.62V73.4c3.264-.563 5.966-3.096 6.303-6.475.45-4.336-2.983-8.053-7.26-8.053"/>
                <path fill="#D8D8D8" d="M181.697 57.013V51.16h42.84v5.854h-42.84zm0 18.745v-5.854h42.84v5.854h-42.84zm0 18.745v-5.854h78.797v5.854h-78.796zm0 18.744v-5.853h78.797v5.853h-78.796z"/>
            </g>
            <g mask="url(#b)">
                <path fill="#FFF" d="M107.47 100.054l27.845 134.411 10.534 6.921 6.78-10.33 10.324 6.783 6.78-10.33 10.324 6.782 6.78-10.33 10.325 6.783 6.779-10.33 10.324 6.783 6.78-10.33 10.325 6.783 6.916-10.54.117-.024-27.846-134.412a1.884 1.884 0 0 0-2.225-1.463L108.93 97.827a1.883 1.883 0 0 0-1.46 2.227"/>
                <path fill="#33A853" d="M193.653 113.726l-2.26.468c-1.763.366-3.46-.892-3.661-2.691-.155-1.578 1.038-3.034 2.581-3.353l2.645-.549c.992-.206 1.968.34 2.382 1.231a.548.548 0 0 0 .643.327l3.03-.628a.625.625 0 0 0 .481-.733 6.438 6.438 0 0 0-7.007-4.412l-.617-2.978a.624.624 0 0 0-.731-.48l-2.976.617a.625.625 0 0 0-.48.732l.628 3.033a7.304 7.304 0 0 0-4.55 9.11c1.162 3.669 5.028 5.685 8.776 4.908l1.928-.4c1.764-.366 3.462.892 3.662 2.69.154 1.579-1.039 3.034-2.582 3.354l-2.645.549c-.992.205-1.967-.34-2.382-1.232a.547.547 0 0 0-.642-.327l-3.03.629c-.332.069-.605.413-.482.732a6.438 6.438 0 0 0 7.007 4.413l.617 2.977c.068.331.401.55.732.481l2.975-.617a.625.625 0 0 0 .481-.733l-.64-3.087c3.082-1.215 5.214-4.244 4.859-7.621-.439-4.337-4.554-7.28-8.742-6.41"/>
                <path fill="#777" d="M169.052 110.951l-41.948 8.7 1.188 5.732 41.948-8.7zM172.855 129.306l-41.949 8.7 1.188 5.732 41.948-8.7zM211.865 140.359l-77.156 16.002 1.187 5.732 77.156-16.002zM215.667 158.713l-77.156 16.002 1.188 5.732 77.156-16.002z"/>
            </g>
            <g mask="url(#b)">
                <path fill="#FFBF90" d="M202.64 173.167C200.536 174.86 173.751 209.176 172 213c-1.752 3.824-3.35 7.566-1.949 10 1.402 2.434 3.996 5.043 6.449 4 1.635-.695 3.107-2.547 4.414-5.554v6.953c0 2.433-1.367 4.667.586 7.101 1.953 2.434 3.13 3.543 5.933 2.5 1.87-.695 3.317-1.694 4.344-2.996-1.05 3.302-.666 5.634 1.15 6.996 2.723 2.043 6.208 1.348 7.26-.043 1.05-1.39 1.401-.695 1.401-1.738 0-1.043.35 1.738 2.453 1.738 2.103 0 6.658-4.52 8.06-6.953 1.401-2.433 31.19-24.41 36.094-26.459 4.904-2.048 14.014-10.467 23.826-12.478 9.811-2.01 3.154-8.691-3.154-10.777-6.307-2.086-64.125-13.817-66.228-12.123z"/>
                <path fill="#FFCBA5" d="M117.252 157.474c.347 0 36.845 2.788 41.711 2.788 4.867 0 22.594-5.397 27.808-7.32 5.214-1.924 11.123-3.18 14.947 0 2.55 2.12 7.068 4.56 13.556 7.32-5.098 10.432-6.372 16.643-3.823 18.631 3.823 2.982 22.246 16.926 22.594 17.275.347.349 10.775 12.898 11.123 12.898.178 0 2.299 2.86 1.738 5.578-.537 2.6-3.7 5.058-5.91 5.229-3.012.232-4.75.232-5.213 0-.232 2.789-1.622 4.764-4.171 5.926-2.55 1.162-4.751 1.162-6.605 0-.695 3.718-1.945 6.159-3.75 7.32-1.32.851-3.27.203-4.245 1.046-1.131.981 0 3.835-4.518 3.835-4.52 0-3.129-.697-6.952-1.046-3.824-.348-25.723-10.458-27.808-12.898-2.086-2.44-24.68-19.522-29.199-21.613-4.518-2.092-15.294 0-23.289 0H103c9.27-29.98 14.02-44.97 14.252-44.97z"/>
                <path fill="#FFC092" d="M162.392 177.297c5.229-2.445 15.337-7.696 17.777-11.007 2.44-3.31 10.457-6.104 15.337-6.104 4.88 0 12.897-3.143 12.897-3.143s31.375 1.047 39.39 1.047c8.014 0 42.173-7.045 46.007-8.068 2.556-.683 6.623 14.811 12.2 46.481-19.984-1.862-31.487-1.862-34.508 0-3.02 1.863-11.618-1.513-25.793-10.127-8.83.699-15.22.35-19.171-1.047-5.926-2.096-10.806-5.743-16.383-8.032-3.528-1.449-15.336 1.552-18.822 1.552-3.486 0-8.19 5.432-15.858 7.527-7.669 2.096-18.301-6.635-13.073-9.08z"/>
                <path fill="#FFAF74" fill-rule="nonzero" d="M210.018 177.78l.255-.967c.894.237 2.068.646 3.823 1.318.645.247 4.02 1.566 5.017 1.947 1.182.451 2.228.838 3.224 1.189 4.146 1.459 7.282 2.233 9.546 2.233H247v1h-15.117c-2.41 0-5.631-.796-9.878-2.29-1.005-.354-2.059-.744-3.249-1.198-1-.382-4.377-1.702-5.017-1.947-1.724-.66-2.872-1.06-3.721-1.285z"/>
            </g>
            <path fill="#00C4EC" d="M-58.5 134.522s42.528 4.769 89.003 7.963C76.98 145.68 127 152.921 127 152.921L119.71 208s-70.525 7.266-118.368 6.932C-46.5 214.598-58.5 217.5-58.5 217.5v-82.978z" mask="url(#b)"/>
            <path fill="#A998FF" d="M286.09 144.88l3.582 57.12s111.833 15.904 128.08 15.904c16.248 0 37.866-60.226 11.748-76.166-26.118-15.94 12.869-15.554-111.522 0l-31.889 3.142z" mask="url(#b)"/>
            <path fill="#FFC092" fill-rule="nonzero" d="M238.562 219.507l-.609.794c-3.269-2.51-5.683-4.308-7.239-5.39-2.583-1.798-6.144-4.989-7.845-7.097-3.454-4.28-7.655-7.737-12.604-10.373l.47-.882c5.068 2.698 9.373 6.241 12.912 10.627 1.637 2.029 5.129 5.157 7.639 6.904 1.571 1.093 3.996 2.899 7.276 5.417zM224.65 225.58l-.542.84c-2.62-1.688-5.82-4.408-9.607-8.16-3.722-3.689-8.518-6.912-14.39-9.667l.425-.905c5.97 2.801 10.86 6.087 14.669 9.86 3.742 3.71 6.893 6.387 9.445 8.032zM216.974 233.51l-.19.98c-4.92-.954-9.302-3.336-13.136-7.135-3.7-3.667-7.74-5.984-12.123-6.963l.218-.976c4.575 1.021 8.78 3.434 12.609 7.229 3.696 3.662 7.9 5.947 12.622 6.864z" mask="url(#b)"/>
        </g>
        <path fill="#FFAA4D" d="M381.768 84A3.78 3.78 0 0 1 378 80.232V38.768A3.78 3.78 0 0 1 381.768 35h41.464A3.779 3.779 0 0 1 427 38.768v41.464A3.779 3.779 0 0 1 423.232 84h-41.464z"/>
        <path fill="#FFF" d="M393.56 45.995a3.582 3.582 0 1 1-3.582-3.584 3.582 3.582 0 0 1 3.582 3.584zm26.438 26.347a3.582 3.582 0 1 1-7.163 0 3.583 3.583 0 0 1 7.163 0zm-13.22-13.174a3.582 3.582 0 1 1-7.162 0 3.583 3.583 0 0 1 7.163 0z"/>
        <path fill="#2FD190" d="M104.056 162.413l-35.787 15.653a3.74 3.74 0 0 1-4.91-1.924l-15.644-35.807a3.743 3.743 0 0 1 1.923-4.913l35.787-15.652a3.739 3.739 0 0 1 4.91 1.924L105.98 157.5a3.743 3.743 0 0 1-1.923 4.913"/>
        <path fill="#FFF" d="M63.349 142.099a3.583 3.583 0 0 1-1.847 4.718 3.584 3.584 0 0 1-2.87-6.566 3.58 3.58 0 0 1 4.717 1.848zm34.772 13.545a3.58 3.58 0 1 1-6.563 2.87 3.584 3.584 0 0 1 1.847-4.717 3.58 3.58 0 0 1 4.716 1.847z"/>
        <g>
            <path fill="#FF525E" d="M326.607 128.039L308.58 93.372a3.743 3.743 0 0 1 1.586-5.032l34.648-18.037a3.74 3.74 0 0 1 5.03 1.588l18.026 34.667a3.743 3.743 0 0 1-1.586 5.031l-34.648 18.037a3.739 3.739 0 0 1-5.03-1.587"/>
            <path fill="#F3F3F3" d="M344.54 85.808a3.58 3.58 0 0 1-4.83-1.525 3.58 3.58 0 1 1 6.354-3.308 3.585 3.585 0 0 1-1.524 4.833zm12.202 23.466a3.58 3.58 0 0 1-4.83-1.525 3.58 3.58 0 1 1 6.354-3.307 3.584 3.584 0 0 1-1.524 4.832zM321.18 97.968a3.584 3.584 0 0 1-3.306-6.358 3.58 3.58 0 0 1 4.83 1.526 3.585 3.585 0 0 1-1.524 4.832zm12.203 23.466a3.58 3.58 0 0 1-4.83-1.525 3.58 3.58 0 1 1 6.354-3.307 3.584 3.584 0 0 1-1.524 4.832zm5.579-17.813a3.58 3.58 0 0 1-4.83-1.525 3.584 3.584 0 0 1 1.524-4.832 3.58 3.58 0 0 1 4.83 1.525 3.584 3.584 0 0 1-1.524 4.832z"/>
        </g>
        <g>
            <path fill="#F5A622" d="M126.729 165.33l17.03-.313a3.785 3.785 0 0 1 3.843 3.704l.314 17.03a3.784 3.784 0 0 1-3.704 3.843l-17.031.314a3.785 3.785 0 0 1-3.843-3.703l-.313-17.032a3.785 3.785 0 0 1 3.704-3.843"/>
            <path fill="#F3F3F3" d="M140.68 183.78a1.893 1.893 0 1 1 3.786-.07 1.893 1.893 0 0 1-3.785.07zm-13.39 1.584a1.893 1.893 0 1 1 2.629-2.725 1.893 1.893 0 0 1-2.628 2.725zm13.135-15.498a1.892 1.892 0 1 1 3.783-.071 1.892 1.892 0 0 1-3.783.07zm-13.97.257a1.893 1.893 0 1 1 3.785-.07 1.893 1.893 0 0 1-3.785.07zm.836 8.156a1.893 1.893 0 1 1 2.627-2.725 1.893 1.893 0 0 1-2.627 2.725zm13.969-.485a1.893 1.893 0 1 1 2.628-2.725 1.893 1.893 0 0 1-2.628 2.725z"/>
        </g>
    </g>
</svg>
