<svg xmlns="http://www.w3.org/2000/svg" width="130" height="52" viewBox="0 0 130 52">
    <g fill="none" fill-rule="evenodd">
        <path fill="#FA2828" d="M56.204 12c-1.18 0-1.622.193-2.362.923-.774.764-2.378 2.586-2.74 3.17-.175.278-.102.535.044.806.865 1.617 2.436 2.101 4.66 2.101h16.99c1.18 0 1.624-.191 2.361-.921.775-.764 2.379-2.586 2.743-3.17.172-.279.1-.538-.045-.809-.864-1.615-2.437-2.1-4.664-2.1H56.204z"/>
        <path fill="#494949" d="M99.541 9.47c-1.052-.53-1.527-.573-2.488-.321-1.007.265-3.192 1.004-3.756 1.308-.27.145-.312.384-.293.666.103 1.683 1.305 2.776 3.29 3.776l15.163 7.63c1.053.53 1.529.575 2.488.322 1.007-.264 3.191-1.003 3.757-1.307.27-.146.312-.386.295-.668-.104-1.681-1.307-2.777-3.295-3.776l-15.16-7.63zM87.199.137c-.232-.137-.453-.205-.69-.042-.501.34-2.063 1.843-2.719 2.568-.625.694-.79 1.108-.79 2.214v21.616c0 2.087.415 3.561 1.8 4.37.232.136.454.205.693.043.501-.341 2.062-1.845 2.717-2.57.626-.691.79-1.107.79-2.213V4.505c0-2.086-.415-3.558-1.801-4.368M127.199.137c-.232-.137-.452-.205-.69-.042-.5.34-2.063 1.843-2.719 2.568-.625.694-.79 1.108-.79 2.214v21.616c0 2.087.416 3.561 1.8 4.37.232.136.454.205.693.043.501-.341 2.062-1.845 2.717-2.57.626-.691.79-1.107.79-2.213V4.505c0-2.086-.415-3.558-1.801-4.368M18.541 9.47c-1.052-.53-1.527-.573-2.488-.321-1.007.265-3.192 1.004-3.757 1.308-.27.145-.31.384-.292.666.103 1.683 1.305 2.776 3.29 3.776l15.163 7.63c1.054.53 1.53.575 2.49.322 1.005-.264 3.19-1.003 3.756-1.307.269-.146.311-.386.293-.668-.102-1.681-1.306-2.777-3.294-3.776l-15.16-7.63zM5.199.137C4.967 0 4.747-.068 4.509.095c-.501.34-2.063 1.843-2.718 2.568C1.165 3.357 1 3.771 1 4.877v21.616c0 2.087.416 3.561 1.8 4.37.232.136.454.205.693.043.501-.341 2.062-1.845 2.717-2.57.626-.691.79-1.107.79-2.213V4.505C7 2.419 6.585.947 5.199.137M45.199.137c-.232-.137-.452-.205-.69-.042-.501.34-2.063 1.843-2.718 2.568-.626.694-.791 1.108-.791 2.214v21.616c0 2.087.416 3.561 1.8 4.37.232.136.454.205.693.043.501-.341 2.062-1.845 2.717-2.57.626-.691.79-1.107.79-2.213V4.505c0-2.086-.415-3.558-1.801-4.368"/>
        <g fill="#646464">
            <path d="M40.05 49.17c0 1.952-1.302 2.83-3.634 2.83-1.544 0-3.377-.163-3.377-.163v-1.61s1.817.195 3.152.195c1.511 0 2.22-.439 2.22-1.447v-.455c0-.732-.162-1.204-1.288-1.334l-1.768-.21c-1.416-.164-2.365-1.237-2.365-2.684v-.878c0-1.887 1.335-2.765 3.57-2.765 1.046 0 2.332.114 2.96.18v1.576s-1.85-.21-2.766-.21c-1.496 0-2.123.39-2.123 1.43v.44c0 .65.21 1.202 1.254 1.333l1.85.227c1.366.162 2.315 1.106 2.315 2.553v.992zM43.22 51.821V40.828h6.498v1.48H44.86v3.301h4.1v1.463h-4.1v3.252h4.985v1.497zM58.259 43.658c0-.911-.386-1.35-1.4-1.35h-2.524v3.415h2.525c1.013 0 1.399-.44 1.399-1.35v-.715zm.772 8.164l-2.316-4.62h-2.38v4.62h-1.64V40.828h4.888c1.336 0 2.316 1.09 2.316 2.44v1.496c0 1.057-.595 1.95-1.495 2.293l2.412 4.765H59.03zM69.872 40.828h1.785l-3.763 10.993h-1.961l-3.764-10.993h1.786l2.878 9.01h.16zM74.554 51.821h1.64V40.828h-1.64zM86.777 51.821c-.789.065-1.898.18-2.766.18-2.107 0-4.086-.636-4.086-3.433V44.08c0-2.797 2.011-3.43 4.118-3.43.868 0 1.914.113 2.701.178v1.561s-1.543-.195-2.62-.195c-1.995 0-2.557.585-2.557 2.44v3.187c0 1.853.562 2.634 2.556 2.634 1.078 0 2.654-.195 2.654-.195v1.561zM89.722 51.821V40.828h6.497v1.48h-4.856v3.301h4.1v1.463h-4.1v3.252h4.985v1.497z"/>
        </g>
    </g>
</svg>
